<?xml version="1.0" encoding="utf-8"?>
<!-- Generator: Adobe Illustrator 16.0.4, SVG Export Plug-In . SVG Version: 6.00 Build 0)  -->
<!DOCTYPE svg PUBLIC "-//W3C//DTD SVG 1.1//EN" "http://www.w3.org/Graphics/SVG/1.1/DTD/svg11.dtd">
<svg version="1.1" id="Layer_1" xmlns="http://www.w3.org/2000/svg" xmlns:xlink="http://www.w3.org/1999/xlink" x="0px" y="0px"
	 width="16px" height="16px" viewBox="0 0 16 16" enable-background="new 0 0 16 16" xml:space="preserve">
<path fill="#3C80BC" d="M16,8c0-0.3-0.019-0.597-0.052-0.889h-0.899c-0.4-3.215-2.943-5.759-6.16-6.161V0.053
	C8.597,0.02,8.301,0,8,0S7.404,0.02,7.111,0.053v0.898C3.896,1.352,1.352,3.896,0.95,7.111H0.053C0.02,7.404,0,7.7,0,8
	c0,0.3,0.02,0.596,0.053,0.889H0.95c0.401,3.215,2.946,5.759,6.161,6.162v0.898C7.404,15.981,7.699,16,8,16s0.597-0.019,0.889-0.052
	v-0.9c3.215-0.401,5.76-2.944,6.162-6.16h0.897C15.981,8.598,16,8.302,16,8z M8.889,13.254v-0.809c0-0.492-0.398-0.889-0.889-0.889
	s-0.889,0.397-0.889,0.889v0.809c-2.23-0.375-3.989-2.132-4.363-4.364l0.808-0.001c0.491,0,0.889-0.398,0.889-0.889
	c0-0.491-0.397-0.889-0.889-0.889h-0.81c0.376-2.23,2.135-3.988,4.365-4.365v0.809c0,0.49,0.398,0.889,0.889,0.889
	s0.889-0.398,0.889-0.889V2.747c2.232,0.375,3.99,2.133,4.365,4.365h-0.809c-0.492,0-0.889,0.398-0.889,0.889
	c0,0.49,0.396,0.889,0.889,0.889l0.809,0.001C12.877,11.122,11.121,12.878,8.889,13.254z"/>
</svg>
