<?xml version="1.0" encoding="utf-8"?>
<!-- Generator: Adobe Illustrator 16.0.4, SVG Export Plug-In . SVG Version: 6.00 Build 0)  -->
<!DOCTYPE svg PUBLIC "-//W3C//DTD SVG 1.1//EN" "http://www.w3.org/Graphics/SVG/1.1/DTD/svg11.dtd">
<svg version="1.1" id="Layer_1" xmlns="http://www.w3.org/2000/svg" xmlns:xlink="http://www.w3.org/1999/xlink" x="0px" y="0px"
	 width="38.647px" height="38.899px" viewBox="0 0 38.647 38.899" enable-background="new 0 0 38.647 38.899" xml:space="preserve">
<g>
	<g>
		<path fill="#006838" d="M11.1,6.492l1.245-1.244c0.07-0.07,0.186-0.07,0.257,0l20.983,20.957c0.07,0.069,0.07,0.184,0,0.255
			l-1.264,1.263L11.1,6.492z"/>
		<line fill="#006838" x1="32.321" y1="27.723" x2="11.1" y2="6.492"/>
	</g>
	<g>
		<path fill="#006838" d="M5.254,12.33l3.358-3.354l21.221,21.23l-3.339,3.335c-0.035,0.035-0.083,0.054-0.128,0.054
			c-0.047,0-0.094-0.019-0.129-0.054L5.254,12.586C5.22,12.552,5.2,12.506,5.2,12.458S5.22,12.364,5.254,12.33z"/>
		<line fill="#006838" x1="8.612" y1="8.977" x2="29.833" y2="30.207"/>
	</g>
	
		<rect x="5.457" y="17.514" transform="matrix(-0.707 -0.7072 0.7072 -0.707 21.9578 45.7965)" fill="#006838" width="30.018" height="1.672"/>
	<path fill="#006838" d="M1.038,3.367l2.334-2.33C4.04,0.368,4.931,0,5.879,0c0.946,0,1.837,0.368,2.507,1.037l2.332,2.33
		c0.035,0.033,0.055,0.08,0.055,0.128s-0.02,0.094-0.055,0.128l-7.09,7.081c-0.033,0.034-0.081,0.054-0.129,0.054
		c-0.049,0-0.094-0.02-0.127-0.054L1.038,8.375C0.368,7.705,0,6.816,0,5.871C0,4.925,0.368,4.036,1.038,3.367z"/>
	<path fill="#006838" d="M34.95,27.812c0.045-0.045,0.108-0.064,0.17-0.048c0.062,0.015,0.111,0.061,0.131,0.122l3.389,10.778
		c0.02,0.065,0.002,0.136-0.047,0.183c-0.035,0.035-0.08,0.052-0.126,0.052c-0.021,0-0.04-0.003-0.062-0.011l-10.479-3.696
		c-0.059-0.021-0.104-0.069-0.117-0.13s0.005-0.125,0.049-0.168L34.95,27.812z"/>
</g>
</svg>
