<?xml version="1.0" encoding="utf-8"?>
<!-- Generator: Adobe Illustrator 16.0.4, SVG Export Plug-In . SVG Version: 6.00 Build 0)  -->
<!DOCTYPE svg PUBLIC "-//W3C//DTD SVG 1.1//EN" "http://www.w3.org/Graphics/SVG/1.1/DTD/svg11.dtd">
<svg version="1.1" id="Layer_1" xmlns="http://www.w3.org/2000/svg" xmlns:xlink="http://www.w3.org/1999/xlink" x="0px" y="0px"
	 width="22.533px" height="13.534px" viewBox="0 0 22.533 13.534" enable-background="new 0 0 22.533 13.534" xml:space="preserve">
<g>
	<g>
		<g>
			<path fill="#006838" d="M22.479,0.201c-0.094-0.157-0.281-0.235-0.459-0.187L9.444,3.444C9.375,3.463,9.312,3.5,9.26,3.552
				l-9.143,9.289c-0.128,0.132-0.154,0.333-0.061,0.492c0.093,0.158,0.279,0.235,0.459,0.187l12.575-3.43
				c0.033-0.009,0.066-0.023,0.099-0.041c0.029-0.018,0.059-0.04,0.084-0.066l9.144-9.289C22.546,0.563,22.57,0.36,22.479,0.201z
				 M3.509,11.312l6.126-6.226l2.301,3.928L3.509,11.312z"/>
		</g>
	</g>
</g>
</svg>
