<?xml version="1.0" encoding="utf-8"?>
<!-- Generator: Adobe Illustrator 16.0.4, SVG Export Plug-In . SVG Version: 6.00 Build 0)  -->
<!DOCTYPE svg PUBLIC "-//W3C//DTD SVG 1.1//EN" "http://www.w3.org/Graphics/SVG/1.1/DTD/svg11.dtd">
<svg version="1.1" id="Layer_1" xmlns="http://www.w3.org/2000/svg" xmlns:xlink="http://www.w3.org/1999/xlink" x="0px" y="0px"
	 width="40px" height="40px" viewBox="0 0 40 40" enable-background="new 0 0 40 40" xml:space="preserve">
<g>
	<g>
		<path fill="#3C80BC" d="M11.776,7.042l1.245-1.244c0.07-0.07,0.186-0.07,0.257,0l20.983,20.957c0.07,0.069,0.07,0.184,0,0.255
			l-1.264,1.263L11.776,7.042z"/>
		<line fill="#3C80BC" x1="32.998" y1="28.273" x2="11.776" y2="7.042"/>
	</g>
	<g>
		<path fill="#3C80BC" d="M5.931,12.88l3.358-3.354l21.221,21.23l-3.339,3.335c-0.035,0.035-0.083,0.054-0.128,0.054
			c-0.047,0-0.094-0.019-0.129-0.054L5.931,13.136c-0.034-0.034-0.054-0.08-0.054-0.128S5.896,12.915,5.931,12.88z"/>
		<line fill="#3C80BC" x1="9.289" y1="9.527" x2="30.51" y2="30.757"/>
	</g>
	
		<rect x="6.133" y="18.064" transform="matrix(-0.707 -0.7072 0.7072 -0.707 22.7238 47.2145)" fill="#3C80BC" width="30.018" height="1.672"/>
	<path fill="#3C80BC" d="M1.715,3.917l2.334-2.33C4.717,0.918,5.607,0.55,6.556,0.55c0.946,0,1.837,0.368,2.507,1.037l2.332,2.33
		c0.035,0.033,0.055,0.08,0.055,0.128s-0.02,0.094-0.055,0.128l-7.09,7.081c-0.033,0.034-0.081,0.054-0.129,0.054
		c-0.049,0-0.094-0.02-0.127-0.054L1.715,8.925c-0.67-0.67-1.038-1.559-1.038-2.504C0.677,5.475,1.045,4.586,1.715,3.917z"/>
	<path fill="#3C80BC" d="M35.627,28.363c0.045-0.045,0.108-0.064,0.17-0.048c0.062,0.015,0.111,0.061,0.131,0.122l3.389,10.778
		c0.02,0.065,0.002,0.136-0.047,0.183c-0.035,0.035-0.08,0.052-0.126,0.052c-0.021,0-0.04-0.003-0.062-0.011l-10.479-3.696
		c-0.059-0.021-0.104-0.069-0.117-0.13s0.005-0.125,0.049-0.168L35.627,28.363z"/>
</g>
</svg>
