<?xml version="1.0" encoding="utf-8"?>
<!-- Generator: Adobe Illustrator 16.0.4, SVG Export Plug-In . SVG Version: 6.00 Build 0)  -->
<!DOCTYPE svg PUBLIC "-//W3C//DTD SVG 1.1//EN" "http://www.w3.org/Graphics/SVG/1.1/DTD/svg11.dtd">
<svg version="1.1" id="Layer_1" xmlns="http://www.w3.org/2000/svg" xmlns:xlink="http://www.w3.org/1999/xlink" x="0px" y="0px"
	 width="40px" height="40px" viewBox="0 0 40 40" enable-background="new 0 0 40 40" xml:space="preserve">
<path fill="#006838" d="M24.946,28.515c-0.987-0.156-1.007-2.871-1.007-2.871s2.898-2.871,3.532-6.731
	c1.7,0,2.749-4.104,1.049-5.549C28.591,11.842,30.706,1.43,20,1.43s-8.591,10.413-8.521,11.933c-1.7,1.445-0.649,5.549,1.051,5.549
	c0.632,3.861,3.531,6.731,3.531,6.731s-0.022,2.715-1.008,2.871C11.873,29.021,0,34.258,0,40h20h20
	C40,34.258,28.128,29.021,24.946,28.515z"/>
</svg>
