<?xml version="1.0" encoding="utf-8"?>
<!-- Generator: Adobe Illustrator 16.0.4, SVG Export Plug-In . SVG Version: 6.00 Build 0)  -->
<!DOCTYPE svg PUBLIC "-//W3C//DTD SVG 1.1//EN" "http://www.w3.org/Graphics/SVG/1.1/DTD/svg11.dtd">
<svg version="1.1" id="Layer_1" xmlns="http://www.w3.org/2000/svg" xmlns:xlink="http://www.w3.org/1999/xlink" x="0px" y="0px"
	 width="16px" height="16px" viewBox="0 0 16 16" enable-background="new 0 0 16 16" xml:space="preserve">
<g id="Layer_4_1_">
	<g>
		<path fill="#FFFFFF" d="M1.623,7.127V16h12.754V7.127H1.623z M8.742,11.928v2.329H7.356v-2.329c-0.595-0.266-1.01-0.86-1.01-1.552
			c0-0.941,0.763-1.703,1.704-1.703c0.939,0,1.701,0.762,1.701,1.703C9.752,11.069,9.338,11.662,8.742,11.928z"/>
		<path fill="#FFFFFF" d="M5.594,6.086c-0.062,0-0.264-0.549-0.264-0.549C5.241,5.256,5.197,4.966,5.197,4.673
			c0-1.573,1.279-2.854,2.854-2.854c1.572,0,2.852,1.28,2.852,2.854c0,0.296-0.045,0.587-0.133,0.862l0.004,0.001l-0.009,0.001
			c0,0-0.201,0.549-0.263,0.549c-0.061,0,1.961,0,1.995,0l0.007,0.002c0.145-0.455,0.219-0.931,0.219-1.416
			C12.722,2.096,10.626,0,8.051,0C5.474,0,3.377,2.096,3.377,4.673c0,0.479,0.073,0.955,0.219,1.414
			C3.596,6.086,5.654,6.086,5.594,6.086z"/>
	</g>
</g>
</svg>
