<?xml version="1.0" encoding="utf-8"?>
<!-- Generator: Adobe Illustrator 16.0.4, SVG Export Plug-In . SVG Version: 6.00 Build 0)  -->
<!DOCTYPE svg PUBLIC "-//W3C//DTD SVG 1.1//EN" "http://www.w3.org/Graphics/SVG/1.1/DTD/svg11.dtd">
<svg version="1.1" id="Layer_1" xmlns="http://www.w3.org/2000/svg" xmlns:xlink="http://www.w3.org/1999/xlink" x="0px" y="0px"
	 width="40px" height="40px" viewBox="0 0 40 40" enable-background="new 0 0 40 40" xml:space="preserve">
<g>
	<path fill="#8DCEE0" d="M19.398,22.971c-0.199-0.249-4.863-6.139-6.293-10.811c-0.25-0.698-0.386-1.431-0.414-2.178
		c0-0.085-0.004-0.174-0.004-0.264c0-4.032,3.281-7.313,7.312-7.313c1.954,0,3.792,0.76,5.171,2.142
		c1.383,1.383,2.145,3.218,2.145,5.171c0,0.09-0.004,0.183-0.008,0.275c-0.025,0.737-0.164,1.47-0.411,2.167
		c-1.429,4.672-6.093,10.561-6.289,10.81l-0.607,0.76L19.398,22.971z"/>
	<path fill="#FFFFFF" d="M19.999,3.178c-3.612,0-6.543,2.928-6.543,6.54c0,0.078,0.007,0.157,0.011,0.236
		c0.025,0.688,0.15,1.347,0.375,1.964c1.394,4.587,6.157,10.572,6.157,10.572s4.767-5.983,6.164-10.57
		c0.218-0.619,0.347-1.278,0.372-1.966c0.007-0.079,0.007-0.158,0.007-0.236C26.542,6.106,23.615,3.178,19.999,3.178z"/>
	<g>
		<path fill="#8DCEE0" d="M19.999,6.515c-1.769,0-3.202,1.435-3.202,3.204c0,1.77,1.434,3.203,3.202,3.203
			c1.772,0,3.205-1.433,3.205-3.203C23.204,7.95,21.771,6.515,19.999,6.515z M19.999,12.15c-1.34,0-2.43-1.091-2.43-2.432
			c0-1.341,1.09-2.431,2.43-2.431c1.344,0,2.434,1.09,2.434,2.431C22.433,11.06,21.343,12.15,19.999,12.15z"/>
	</g>
</g>
</svg>
