<?xml version="1.0" encoding="utf-8"?>
<!-- Generator: Adobe Illustrator 16.0.4, SVG Export Plug-In . SVG Version: 6.00 Build 0)  -->
<!DOCTYPE svg PUBLIC "-//W3C//DTD SVG 1.1//EN" "http://www.w3.org/Graphics/SVG/1.1/DTD/svg11.dtd">
<svg version="1.1" id="Layer_1" xmlns="http://www.w3.org/2000/svg" xmlns:xlink="http://www.w3.org/1999/xlink" x="0px" y="0px"
	 width="22px" height="22px" viewBox="0 0 22 22" enable-background="new 0 0 22 22" xml:space="preserve">
<g>
	<g>
		<path fill="#FFFFFF" d="M10.671,12.797c-0.109-0.136-2.658-3.355-3.439-5.909c-0.137-0.381-0.211-0.782-0.227-1.19
			c0-0.046-0.002-0.095-0.002-0.144c0-2.204,1.793-3.997,3.996-3.997c1.068,0,2.072,0.416,2.826,1.17
			c0.756,0.756,1.172,1.759,1.172,2.827c0,0.049-0.002,0.1-0.004,0.15c-0.014,0.403-0.09,0.804-0.225,1.185
			c-0.781,2.554-3.33,5.772-3.438,5.909l-0.332,0.415L10.671,12.797z M10.999,4.225c-0.732,0-1.328,0.596-1.328,1.329
			s0.596,1.329,1.328,1.329c0.734,0,1.33-0.596,1.33-1.329S11.733,4.225,10.999,4.225z"/>
		<path fill="#70C383" d="M10.999,1.979c-1.975,0-3.576,1.601-3.576,3.575c0,0.042,0.004,0.086,0.006,0.129
			c0.014,0.376,0.082,0.736,0.205,1.073c0.762,2.507,3.365,5.778,3.365,5.778s2.605-3.271,3.369-5.777
			c0.119-0.338,0.189-0.698,0.203-1.074c0.004-0.043,0.004-0.086,0.004-0.129C14.575,3.58,12.976,1.979,10.999,1.979z M10.999,7.304
			c-0.967,0-1.75-0.783-1.75-1.75c0-0.967,0.783-1.751,1.75-1.751c0.969,0,1.752,0.784,1.752,1.751
			C12.751,6.521,11.968,7.304,10.999,7.304z"/>
	</g>
</g>
</svg>
