<?xml version="1.0" encoding="utf-8"?>
<!-- Generator: Adobe Illustrator 16.0.4, SVG Export Plug-In . SVG Version: 6.00 Build 0)  -->
<!DOCTYPE svg PUBLIC "-//W3C//DTD SVG 1.1//EN" "http://www.w3.org/Graphics/SVG/1.1/DTD/svg11.dtd">
<svg version="1.1" id="Layer_1" xmlns="http://www.w3.org/2000/svg" xmlns:xlink="http://www.w3.org/1999/xlink" x="0px" y="0px"
	 width="40px" height="40px" viewBox="0 0 40 40" enable-background="new 0 0 40 40" xml:space="preserve">
<g>
	<g>
		<path fill="#8DCEE0" d="M19.396,22.971c-0.198-0.249-4.862-6.138-6.291-10.81c-0.246-0.698-0.386-1.431-0.412-2.179
			c-0.004-0.084-0.006-0.175-0.006-0.263c0-4.033,3.28-7.313,7.312-7.313c1.954,0,3.791,0.761,5.172,2.142s2.143,3.218,2.142,5.171
			c0,0.09-0.002,0.182-0.007,0.274c-0.025,0.738-0.165,1.471-0.412,2.169c-1.429,4.671-6.092,10.56-6.29,10.809L20,23.73
			L19.396,22.971z M20,7.289c-1.34,0-2.431,1.09-2.431,2.431c0,1.34,1.091,2.431,2.431,2.431c1.341,0,2.432-1.09,2.432-2.431
			C22.432,8.379,21.341,7.289,20,7.289z"/>
		<path fill="#8DCEE0" d="M20,3.179c-3.612,0-6.541,2.929-6.541,6.541c0,0.077,0.003,0.156,0.006,0.235
			c0.025,0.688,0.154,1.347,0.375,1.964C15.235,16.506,20,22.49,20,22.49s4.766-5.983,6.161-10.57
			c0.22-0.618,0.35-1.278,0.374-1.965c0.004-0.079,0.006-0.158,0.006-0.235C26.541,6.107,23.613,3.179,20,3.179z M20,12.923
			c-1.769,0-3.203-1.434-3.203-3.203S18.231,6.516,20,6.516c1.77,0,3.204,1.435,3.204,3.204S21.77,12.923,20,12.923z"/>
	</g>
</g>
</svg>
