<?xml version="1.0" encoding="utf-8"?>
<!-- Generator: Adobe Illustrator 16.0.4, SVG Export Plug-In . SVG Version: 6.00 Build 0)  -->
<!DOCTYPE svg PUBLIC "-//W3C//DTD SVG 1.1//EN" "http://www.w3.org/Graphics/SVG/1.1/DTD/svg11.dtd">
<svg version="1.1" id="Layer_1" xmlns="http://www.w3.org/2000/svg" xmlns:xlink="http://www.w3.org/1999/xlink" x="0px" y="0px"
	 width="20px" height="20px" viewBox="0 0 20 20" enable-background="new 0 0 20 20" xml:space="preserve">
<g>
	<path fill="#006838" d="M18.568,11.171l-0.994-0.368c0.078-0.725,0.052-1.464-0.084-2.199l0.961-0.443
		c0.6-0.275,0.861-0.989,0.586-1.589l-0.561-1.217c-0.276-0.6-0.988-0.865-1.588-0.587l-0.963,0.443
		c-0.469-0.582-1.015-1.082-1.615-1.494l0.366-0.994c0.228-0.619-0.089-1.31-0.708-1.538L12.71,0.72
		c-0.6-0.22-1.315,0.11-1.538,0.709l-0.367,0.995c-0.724-0.078-1.464-0.052-2.198,0.083l-0.442-0.96
		c-0.275-0.6-0.99-0.863-1.59-0.587L5.357,1.52c-0.6,0.277-0.862,0.99-0.588,1.589l0.443,0.96C4.633,4.541,4.131,5.085,3.72,5.688
		L2.727,5.321c-0.6-0.224-1.316,0.107-1.539,0.708L0.725,7.287c-0.111,0.3-0.099,0.626,0.034,0.916
		c0.136,0.291,0.374,0.512,0.675,0.622l0.993,0.368c-0.079,0.724-0.053,1.464,0.083,2.2l-0.961,0.442
		c-0.6,0.277-0.861,0.989-0.586,1.588l0.561,1.219c0.277,0.599,0.988,0.863,1.59,0.586l0.959-0.442
		c0.471,0.582,1.017,1.082,1.619,1.494l-0.367,0.994c-0.111,0.3-0.1,0.625,0.035,0.916c0.133,0.29,0.373,0.511,0.672,0.623
		l1.258,0.464c0.3,0.11,0.625,0.098,0.916-0.035c0.291-0.134,0.512-0.374,0.621-0.673l0.369-0.995
		c0.725,0.079,1.463,0.053,2.199-0.083l0.441,0.96c0.277,0.599,0.99,0.863,1.59,0.586l1.217-0.56c0.6-0.277,0.863-0.989,0.587-1.589
		l-0.443-0.96c0.582-0.471,1.083-1.016,1.493-1.618l0.994,0.368c0.301,0.111,0.627,0.097,0.918-0.037
		c0.289-0.134,0.51-0.374,0.621-0.672l0.465-1.258C19.505,12.09,19.188,11.399,18.568,11.171z M11.982,14.299
		c-0.629,0.289-1.294,0.436-1.979,0.436c-1.845,0-3.532-1.082-4.304-2.755c-1.093-2.373-0.052-5.19,2.318-6.282
		c0.629-0.29,1.295-0.436,1.979-0.436c1.844,0,3.535,1.081,4.305,2.754C15.393,10.388,14.353,13.207,11.982,14.299z"/>
</g>
</svg>
