<?xml version="1.0" encoding="utf-8"?>
<!-- Generator: Adobe Illustrator 16.0.4, SVG Export Plug-In . SVG Version: 6.00 Build 0)  -->
<!DOCTYPE svg PUBLIC "-//W3C//DTD SVG 1.1//EN" "http://www.w3.org/Graphics/SVG/1.1/DTD/svg11.dtd">
<svg version="1.1" id="Layer_1" xmlns="http://www.w3.org/2000/svg" xmlns:xlink="http://www.w3.org/1999/xlink" x="0px" y="0px"
	 width="20px" height="20px" viewBox="0 0 20 20" enable-background="new 0 0 20 20" xml:space="preserve">
<circle fill="#70C383" cx="10" cy="10" r="10"/>
<path fill="#FFFFFF" d="M16.91,7.078l-1.454-1.47c-0.158-0.157-0.425-0.146-0.583,0.011l-6.119,6.12L6.07,9.056
	c-0.159-0.158-0.414-0.158-0.571,0l-1.462,1.461c-0.075,0.076-0.118,0.179-0.118,0.286s0.043,0.21,0.118,0.286l4.431,4.43
	c0.08,0.079,0.182,0.118,0.286,0.118c0.103,0,0.206-0.039,0.285-0.118l7.867-7.867c0.076-0.076,0.12-0.18,0.12-0.286
	C17.026,7.258,16.986,7.153,16.91,7.078z"/>
</svg>
