<?xml version="1.0" encoding="utf-8"?>
<!-- Generator: Adobe Illustrator 16.0.4, SVG Export Plug-In . SVG Version: 6.00 Build 0)  -->
<!DOCTYPE svg PUBLIC "-//W3C//DTD SVG 1.1//EN" "http://www.w3.org/Graphics/SVG/1.1/DTD/svg11.dtd">
<svg version="1.1" id="Layer_1" xmlns="http://www.w3.org/2000/svg" xmlns:xlink="http://www.w3.org/1999/xlink" x="0px" y="0px"
	 width="32.41px" height="11.702px" viewBox="0 0 32.41 11.702" enable-background="new 0 0 32.41 11.702" xml:space="preserve">
<g>
	<path fill="#3C80BC" d="M20.009,8.306c-1.063-0.3-1.707-1.609-2.381-2.993c-0.835-1.69-1.771-3.605-3.812-4.178
		c-1.504-0.422-3.268-0.028-5.501,1.238c0.373,0.535,0.595,1.183,0.595,1.884c0,0.04-0.001,0.078-0.002,0.12
		C8.901,4.493,8.884,4.606,8.868,4.72c1.905-1.178,3.363-1.641,4.322-1.374c1.052,0.297,1.691,1.601,2.369,2.979
		c0.831,1.694,1.771,3.618,3.824,4.194c0.078,0.022,0.15,0.04,0.23,0.059c1.591,0.354,3.488-0.182,5.903-1.656
		c-0.392-0.593-0.81-1.28-1.165-1.977C22.44,8.115,20.981,8.584,20.009,8.306z"/>
	<g>
		<path fill="#8DCEE0" d="M3.667,11.24C3.559,11.104,1.01,7.885,0.229,5.332C0.092,4.95,0.018,4.549,0.002,4.141
			C0.002,4.094,0,4.046,0,3.997C0,1.793,1.794,0,3.996,0c1.068,0,2.072,0.416,2.825,1.171c0.756,0.756,1.173,1.758,1.173,2.826
			c0,0.049-0.002,0.1-0.005,0.15C7.976,4.55,7.9,4.951,7.765,5.332c-0.781,2.553-3.329,5.771-3.437,5.908l-0.332,0.416L3.667,11.24z
			"/>
		<path fill="#FFFFFF" d="M3.996,0.423c-1.975,0-3.575,1.601-3.575,3.574c0,0.043,0.003,0.086,0.005,0.129
			C0.44,4.502,0.509,4.862,0.631,5.199c0.762,2.507,3.365,5.778,3.365,5.778S6.602,7.707,7.364,5.2
			c0.119-0.338,0.189-0.698,0.204-1.074C7.571,4.083,7.571,4.04,7.571,3.997C7.571,2.023,5.973,0.423,3.996,0.423z"/>
		<g>
			<path fill="#8DCEE0" d="M3.996,2.246c-0.966,0-1.75,0.784-1.75,1.751c0,0.967,0.784,1.75,1.75,1.75
				c0.968,0,1.752-0.783,1.752-1.75C5.748,3.03,4.964,2.246,3.996,2.246z M3.996,5.326c-0.732,0-1.328-0.596-1.328-1.329
				s0.596-1.329,1.328-1.329c0.734,0,1.33,0.596,1.33,1.329S4.73,5.326,3.996,5.326z"/>
		</g>
	</g>
	<g>
		<path fill="#8DCEE0" d="M28.083,11.287c-0.108-0.136-2.657-3.355-3.438-5.908c-0.137-0.381-0.211-0.782-0.227-1.19
			c0-0.047-0.002-0.095-0.002-0.144c0-2.204,1.794-3.997,3.996-3.997c1.068,0,2.072,0.416,2.825,1.171
			c0.756,0.756,1.173,1.758,1.173,2.826c0,0.049-0.002,0.1-0.005,0.15c-0.014,0.402-0.089,0.804-0.225,1.185
			c-0.781,2.553-3.329,5.771-3.437,5.908l-0.332,0.416L28.083,11.287z"/>
		<path fill="#FFFFFF" d="M28.412,0.47c-1.975,0-3.575,1.601-3.575,3.574c0,0.043,0.003,0.086,0.005,0.129
			c0.015,0.376,0.083,0.736,0.205,1.073c0.762,2.507,3.365,5.778,3.365,5.778s2.605-3.27,3.368-5.776
			c0.119-0.338,0.189-0.698,0.204-1.074c0.003-0.043,0.003-0.086,0.003-0.129C31.987,2.07,30.389,0.47,28.412,0.47z"/>
		<g>
			<path fill="#8DCEE0" d="M28.412,2.293c-0.966,0-1.75,0.784-1.75,1.751c0,0.967,0.784,1.75,1.75,1.75
				c0.968,0,1.752-0.783,1.752-1.75C30.164,3.077,29.38,2.293,28.412,2.293z M28.412,5.373c-0.732,0-1.328-0.596-1.328-1.329
				s0.596-1.329,1.328-1.329c0.734,0,1.33,0.596,1.33,1.329S29.146,5.373,28.412,5.373z"/>
		</g>
	</g>
</g>
</svg>
