<?xml version="1.0" encoding="utf-8"?>
<!-- Generator: Adobe Illustrator 16.0.4, SVG Export Plug-In . SVG Version: 6.00 Build 0)  -->
<!DOCTYPE svg PUBLIC "-//W3C//DTD SVG 1.1//EN" "http://www.w3.org/Graphics/SVG/1.1/DTD/svg11.dtd">
<svg version="1.1" id="Layer_1" xmlns="http://www.w3.org/2000/svg" xmlns:xlink="http://www.w3.org/1999/xlink" x="0px" y="0px"
	 width="20px" height="20px" viewBox="0 0 20 20" enable-background="new 0 0 20 20" xml:space="preserve">
<circle fill="#EF4438" cx="10" cy="10" r="10"/>
<path fill="#FFFFFF" d="M14.929,12.868c0.095,0.095,0.095,0.25,0,0.345l-1.717,1.716c-0.095,0.095-0.249,0.095-0.345,0L10,12.061
	l-2.867,2.868c-0.096,0.095-0.25,0.095-0.346,0l-1.716-1.716c-0.095-0.095-0.095-0.25,0-0.345L7.939,10L5.071,7.132
	c-0.095-0.095-0.095-0.25,0-0.345l1.716-1.716c0.096-0.095,0.25-0.095,0.346,0L10,7.939l2.867-2.868c0.096-0.095,0.25-0.095,0.345,0
	l1.717,1.716c0.095,0.095,0.095,0.25,0,0.345L12.061,10L14.929,12.868z"/>
</svg>
