<?xml version="1.0" encoding="utf-8"?>
<!-- Generator: Adobe Illustrator 16.0.4, SVG Export Plug-In . SVG Version: 6.00 Build 0)  -->
<!DOCTYPE svg PUBLIC "-//W3C//DTD SVG 1.1//EN" "http://www.w3.org/Graphics/SVG/1.1/DTD/svg11.dtd">
<svg version="1.1" id="Layer_1" xmlns="http://www.w3.org/2000/svg" xmlns:xlink="http://www.w3.org/1999/xlink" x="0px" y="0px"
	 width="40px" height="40px" viewBox="0 0 40 40" enable-background="new 0 0 40 40" xml:space="preserve">
<g>
	<path fill="#006838" d="M17.141,29.958l-0.729-0.269c0.058-0.532,0.039-1.074-0.062-1.613l0.704-0.325
		c0.441-0.202,0.634-0.725,0.431-1.166l-0.411-0.892c-0.202-0.44-0.725-0.634-1.164-0.431l-0.706,0.325
		c-0.344-0.426-0.744-0.793-1.186-1.096l0.27-0.728c0.168-0.454-0.065-0.96-0.52-1.129l-0.923-0.34
		c-0.439-0.162-0.966,0.08-1.128,0.519l-0.269,0.729c-0.531-0.057-1.073-0.038-1.613,0.062L9.511,22.9
		c-0.202-0.44-0.726-0.633-1.165-0.431l-0.893,0.41c-0.44,0.204-0.632,0.727-0.431,1.166l0.325,0.705
		c-0.427,0.345-0.794,0.745-1.096,1.187l-0.728-0.269c-0.439-0.164-0.966,0.078-1.129,0.519l-0.341,0.922
		c-0.081,0.221-0.071,0.459,0.026,0.672c0.099,0.213,0.274,0.375,0.493,0.455l0.729,0.27c-0.057,0.532-0.039,1.075,0.062,1.613
		L4.66,30.443c-0.44,0.203-0.632,0.726-0.43,1.165l0.411,0.893c0.203,0.439,0.726,0.633,1.165,0.431l0.704-0.325
		c0.345,0.427,0.745,0.793,1.187,1.095l-0.27,0.729c-0.081,0.22-0.072,0.458,0.026,0.671c0.098,0.213,0.273,0.376,0.493,0.458
		L8.87,35.9c0.219,0.081,0.458,0.071,0.671-0.026c0.214-0.098,0.376-0.273,0.456-0.494l0.27-0.729
		c0.532,0.058,1.074,0.039,1.613-0.061l0.324,0.705c0.202,0.439,0.726,0.632,1.165,0.43l0.893-0.411
		c0.44-0.203,0.633-0.725,0.431-1.165l-0.324-0.705c0.426-0.345,0.793-0.744,1.094-1.186l0.729,0.27
		c0.221,0.082,0.459,0.072,0.673-0.026c0.212-0.099,0.374-0.274,0.456-0.494l0.339-0.922C17.828,30.631,17.595,30.125,17.141,29.958
		z M12.311,32.251c-0.46,0.213-0.948,0.319-1.452,0.319c-1.352,0-2.591-0.793-3.155-2.02c-0.801-1.74-0.037-3.807,1.701-4.607
		c0.46-0.212,0.948-0.32,1.451-0.32c1.352,0,2.591,0.793,3.156,2.021C14.812,29.383,14.05,31.45,12.311,32.251z"/>
</g>
<g>
	<path fill="#006838" d="M25.827,32.472l-0.406-0.149c0.032-0.296,0.022-0.599-0.033-0.898l0.392-0.181
		c0.245-0.112,0.353-0.403,0.239-0.649l-0.229-0.497c-0.113-0.246-0.404-0.354-0.648-0.24l-0.393,0.181
		c-0.191-0.238-0.415-0.442-0.66-0.61l0.149-0.405c0.094-0.253-0.036-0.535-0.29-0.629l-0.514-0.189
		c-0.244-0.091-0.537,0.044-0.627,0.289l-0.15,0.406c-0.295-0.031-0.598-0.021-0.897,0.034l-0.181-0.392
		c-0.113-0.245-0.404-0.353-0.649-0.24l-0.497,0.229c-0.245,0.113-0.352,0.404-0.239,0.649l0.181,0.392
		c-0.237,0.192-0.442,0.415-0.61,0.661l-0.405-0.149c-0.244-0.092-0.537,0.042-0.628,0.288l-0.19,0.513
		c-0.045,0.124-0.039,0.256,0.015,0.375c0.055,0.118,0.152,0.208,0.274,0.253l0.406,0.15c-0.032,0.295-0.021,0.598,0.035,0.898
		l-0.393,0.181c-0.245,0.113-0.353,0.404-0.24,0.648l0.23,0.498c0.111,0.244,0.403,0.352,0.647,0.24l0.393-0.181
		c0.191,0.237,0.415,0.441,0.661,0.609l-0.15,0.406c-0.046,0.122-0.041,0.255,0.015,0.374c0.055,0.118,0.152,0.209,0.274,0.255
		l0.514,0.19c0.122,0.044,0.255,0.039,0.374-0.015c0.119-0.055,0.209-0.153,0.253-0.275l0.15-0.406
		c0.297,0.032,0.598,0.022,0.898-0.034l0.181,0.393c0.113,0.244,0.404,0.353,0.648,0.239l0.497-0.229
		c0.245-0.114,0.353-0.404,0.239-0.649l-0.181-0.393c0.238-0.191,0.442-0.414,0.61-0.66l0.405,0.15
		c0.123,0.045,0.256,0.04,0.375-0.015c0.117-0.055,0.209-0.153,0.254-0.275l0.189-0.513C26.21,32.847,26.08,32.564,25.827,32.472z
		 M23.138,33.75c-0.257,0.117-0.528,0.177-0.809,0.177c-0.753,0-1.442-0.441-1.757-1.125c-0.446-0.968-0.021-2.12,0.947-2.566
		c0.257-0.118,0.528-0.177,0.808-0.177c0.753,0,1.442,0.442,1.758,1.125C24.53,32.153,24.105,33.303,23.138,33.75z"/>
</g>
<g>
	<path fill="#006838" d="M35.035,17.015l-1.226-0.453c0.097-0.894,0.064-1.806-0.104-2.712l1.185-0.546
		c0.739-0.339,1.062-1.219,0.723-1.959l-0.691-1.5c-0.34-0.74-1.219-1.066-1.958-0.724l-1.186,0.547
		c-0.579-0.718-1.252-1.334-1.993-1.842L30.237,6.6c0.281-0.764-0.109-1.615-0.873-1.896l-1.552-0.575
		c-0.739-0.271-1.622,0.136-1.896,0.874l-0.452,1.227c-0.893-0.097-1.806-0.064-2.711,0.103l-0.546-1.184
		c-0.34-0.74-1.22-1.064-1.959-0.724l-1.501,0.691c-0.739,0.341-1.063,1.221-0.725,1.959l0.547,1.184
		c-0.716,0.581-1.334,1.253-1.842,1.995l-1.224-0.452c-0.739-0.276-1.624,0.132-1.897,0.873l-0.572,1.551
		c-0.137,0.37-0.121,0.771,0.043,1.129c0.167,0.358,0.462,0.631,0.831,0.766l1.226,0.454c-0.098,0.893-0.065,1.806,0.103,2.712
		l-1.185,0.545c-0.739,0.341-1.063,1.219-0.723,1.958l0.691,1.502c0.341,0.738,1.219,1.064,1.959,0.723l1.184-0.545
		c0.58,0.717,1.253,1.333,1.995,1.841l-0.452,1.226c-0.138,0.369-0.122,0.77,0.043,1.129c0.165,0.358,0.46,0.631,0.829,0.769
		l1.551,0.572c0.369,0.136,0.771,0.121,1.129-0.043c0.358-0.165,0.631-0.46,0.767-0.83l0.454-1.226
		c0.894,0.097,1.805,0.065,2.712-0.102l0.545,1.184c0.341,0.739,1.22,1.064,1.959,0.723l1.501-0.69
		c0.74-0.342,1.064-1.22,0.724-1.959l-0.547-1.185c0.718-0.581,1.335-1.252,1.842-1.995l1.226,0.454
		c0.37,0.137,0.772,0.12,1.131-0.045c0.357-0.165,0.63-0.46,0.766-0.829l0.573-1.551C36.19,18.147,35.799,17.296,35.035,17.015z
		 M26.915,20.871c-0.774,0.356-1.595,0.537-2.44,0.537c-2.274,0-4.355-1.333-5.307-3.397c-1.347-2.925-0.063-6.399,2.859-7.746
		c0.774-0.357,1.596-0.537,2.439-0.537c2.273,0,4.357,1.333,5.308,3.396C31.12,16.049,29.838,19.524,26.915,20.871z"/>
</g>
</svg>
