<?xml version="1.0" encoding="utf-8"?>
<!-- Generator: Adobe Illustrator 16.0.4, SVG Export Plug-In . SVG Version: 6.00 Build 0)  -->
<!DOCTYPE svg PUBLIC "-//W3C//DTD SVG 1.1//EN" "http://www.w3.org/Graphics/SVG/1.1/DTD/svg11.dtd">
<svg version="1.1" id="Layer_1" xmlns="http://www.w3.org/2000/svg" xmlns:xlink="http://www.w3.org/1999/xlink" x="0px" y="0px"
	 width="22px" height="22px" viewBox="0 0 22 22" enable-background="new 0 0 22 22" xml:space="preserve">
<g>
	<path fill="#8DCEE0" d="M10.669,12.797c-0.108-0.136-2.657-3.355-3.438-5.908C7.094,6.507,7.02,6.106,7.004,5.698
		c0-0.047-0.002-0.095-0.002-0.144c0-2.204,1.794-3.997,3.996-3.997c1.068,0,2.072,0.416,2.825,1.171
		c0.756,0.756,1.173,1.758,1.173,2.826c0,0.049-0.002,0.1-0.005,0.15c-0.014,0.402-0.089,0.804-0.225,1.185
		c-0.781,2.553-3.329,5.771-3.437,5.908l-0.332,0.416L10.669,12.797z"/>
	<path fill="#FFFFFF" d="M10.998,1.98c-1.975,0-3.575,1.601-3.575,3.574c0,0.043,0.003,0.086,0.005,0.129
		c0.015,0.376,0.083,0.736,0.205,1.073c0.762,2.507,3.365,5.778,3.365,5.778s2.605-3.27,3.368-5.776
		c0.119-0.338,0.189-0.698,0.204-1.074c0.003-0.043,0.003-0.086,0.003-0.129C14.573,3.581,12.975,1.98,10.998,1.98z"/>
	<g>
		<path fill="#8DCEE0" d="M10.998,3.803c-0.966,0-1.75,0.784-1.75,1.751c0,0.967,0.784,1.75,1.75,1.75
			c0.968,0,1.752-0.783,1.752-1.75C12.75,4.587,11.966,3.803,10.998,3.803z M10.998,6.883c-0.732,0-1.328-0.596-1.328-1.329
			s0.596-1.329,1.328-1.329c0.734,0,1.33,0.596,1.33,1.329S11.732,6.883,10.998,6.883z"/>
	</g>
</g>
</svg>
