<?xml version="1.0" encoding="utf-8"?>
<!-- Generator: Adobe Illustrator 16.0.4, SVG Export Plug-In . SVG Version: 6.00 Build 0)  -->
<!DOCTYPE svg PUBLIC "-//W3C//DTD SVG 1.1//EN" "http://www.w3.org/Graphics/SVG/1.1/DTD/svg11.dtd">
<svg version="1.1" id="Layer_1" xmlns="http://www.w3.org/2000/svg" xmlns:xlink="http://www.w3.org/1999/xlink" x="0px" y="0px"
	 width="22px" height="22px" viewBox="0 0 22 22" enable-background="new 0 0 22 22" xml:space="preserve">
<path fill="#3C80BC" d="M22,11c0-0.413-0.025-0.82-0.071-1.223h-1.236c-0.552-4.421-4.048-7.919-8.47-8.471V0.072
	C11.82,0.027,11.413,0,11,0s-0.819,0.027-1.223,0.072v1.235c-4.42,0.551-7.919,4.049-8.471,8.47H0.072C0.026,10.18,0,10.587,0,11
	c0,0.413,0.026,0.82,0.072,1.222h1.234c0.552,4.421,4.051,7.918,8.471,8.472v1.234C10.181,21.974,10.587,22,11,22
	s0.82-0.026,1.223-0.071v-1.237c4.42-0.551,7.918-4.048,8.472-8.469h1.234C21.975,11.821,22,11.415,22,11z M12.223,18.224v-1.112
	c0-0.676-0.548-1.223-1.223-1.223c-0.674,0-1.223,0.546-1.223,1.223v1.112c-3.066-0.516-5.484-2.932-5.999-6l1.11-0.001
	c0.676,0,1.223-0.548,1.223-1.222c0-0.675-0.547-1.223-1.223-1.223H3.776c0.517-3.067,2.935-5.484,6.001-6.001v1.112
	c0,0.675,0.549,1.223,1.223,1.223c0.675,0,1.223-0.548,1.223-1.223V3.777c3.068,0.516,5.485,2.933,6.002,6.001h-1.112
	c-0.677,0-1.223,0.548-1.223,1.223c0,0.674,0.546,1.222,1.223,1.222l1.112,0.001C17.705,15.292,15.291,17.708,12.223,18.224z"/>
</svg>
