<?xml version="1.0" encoding="utf-8"?>
<!-- Generator: Adobe Illustrator 16.0.4, SVG Export Plug-In . SVG Version: 6.00 Build 0)  -->
<!DOCTYPE svg PUBLIC "-//W3C//DTD SVG 1.1//EN" "http://www.w3.org/Graphics/SVG/1.1/DTD/svg11.dtd">
<svg version="1.1" id="Layer_1" xmlns="http://www.w3.org/2000/svg" xmlns:xlink="http://www.w3.org/1999/xlink" x="0px" y="0px"
	 width="22.57px" height="22.571px" viewBox="0 0 22.57 22.571" enable-background="new 0 0 22.57 22.571" xml:space="preserve">
<path fill="#FFFFFF" d="M22.57,11.286c0-0.424-0.026-0.842-0.073-1.254h-1.269c-0.565-4.536-4.152-8.124-8.689-8.691V0.074
	C12.127,0.027,11.709,0,11.285,0s-0.841,0.027-1.254,0.074v1.267c-4.535,0.566-8.125,4.154-8.69,8.69H0.074
	C0.027,10.444,0,10.862,0,11.286c0,0.423,0.027,0.841,0.074,1.254h1.267c0.565,4.536,4.155,8.124,8.69,8.692v1.266
	c0.413,0.046,0.83,0.073,1.254,0.073s0.842-0.027,1.254-0.073v-1.269c4.535-0.565,8.124-4.153,8.691-8.689h1.267
	C22.544,12.128,22.57,11.71,22.57,11.286z M12.539,18.696v-1.141c0-0.693-0.562-1.254-1.254-1.254c-0.691,0-1.254,0.561-1.254,1.254
	v1.141c-3.146-0.529-5.627-3.007-6.155-6.156l1.14-0.001c0.693,0,1.254-0.562,1.254-1.254c0-0.692-0.561-1.254-1.254-1.254H3.874
	c0.53-3.146,3.011-5.626,6.157-6.157v1.141c0,0.692,0.562,1.254,1.254,1.254c0.692,0,1.254-0.562,1.254-1.254V3.875
	c3.148,0.53,5.628,3.009,6.158,6.157h-1.142c-0.694,0-1.254,0.562-1.254,1.254c0,0.692,0.56,1.254,1.254,1.254l1.142,0.001
	C18.164,15.689,15.688,18.167,12.539,18.696z"/>
</svg>
