<?xml version="1.0" encoding="utf-8"?>
<!-- Generator: Adobe Illustrator 16.0.4, SVG Export Plug-In . SVG Version: 6.00 Build 0)  -->
<!DOCTYPE svg PUBLIC "-//W3C//DTD SVG 1.1//EN" "http://www.w3.org/Graphics/SVG/1.1/DTD/svg11.dtd">
<svg version="1.1" id="Layer_1" xmlns="http://www.w3.org/2000/svg" xmlns:xlink="http://www.w3.org/1999/xlink" x="0px" y="0px"
	 width="40px" height="40px" viewBox="0 0 40 40" enable-background="new 0 0 40 40" xml:space="preserve">
<g id="XMLID_1_">
	<g id="XMLID_2_">
		<g>
			<g id="XMLID_3_">
				<g>
					<path fill="#5A595C" d="M11.854,24.227c0,0.758-0.541,1.376-1.212,1.376H8.899H6.745c-0.671,0-1.223-0.618-1.223-1.376
						c0-0.756,0.552-1.363,1.223-1.363h2.154h1.743C11.312,22.863,11.854,23.47,11.854,24.227z"/>
					<path fill="#5A595C" d="M34.478,26.988v2.5c0,1.417-1.203,2.564-2.663,2.564H11.562c-1.473,0-2.663-1.147-2.663-2.564V27.3
						h1.742c1.007,0,1.895-0.542,2.425-1.352c0.313-0.498,0.487-1.094,0.487-1.723c0-1.687-1.299-3.073-2.911-3.073H8.899v-2.467
						h1.743c1.612,0,2.911-1.386,2.911-3.074c0-1.689-1.299-3.074-2.911-3.074H8.899v-2.014c0-1.417,1.19-2.575,2.664-2.575h20.251
						c1.462,0,2.663,1.158,2.663,2.575V26.988L34.478,26.988z M32.486,25.136V12.819c0-1.472-0.12-2.674-1.538-2.674h-7.252H18.76
						c-1.407,0-2.554,1.202-2.554,2.674v11.56c0.011,0,0.021-0.011,0.043-0.011c3.334-0.909,5-1.301,5.379-2.382h0.174
						c-0.054-0.042-0.098-0.075-0.141-0.129c-1.418-1.277-2.5-3.768-2.5-5.779c0-2.849,2.327-4.72,4.535-4.72
						c2.196,0,4.416,2.024,4.416,4.87c0,2.014-1.201,4.416-2.674,5.661c0.293,1.159,1.959,1.538,5.401,2.48
						C31.575,24.573,32.106,24.824,32.486,25.136z M22.646,21.986h0.174c-0.043-0.042-0.098-0.075-0.141-0.129
						C22.668,21.9,22.657,21.944,22.646,21.986z"/>
					<path fill="#5A595C" d="M22.817,21.986h-0.172c0.012-0.042,0.021-0.086,0.033-0.129C22.722,21.911,22.775,21.944,22.817,21.986
						z"/>
					<path fill="#5A595C" d="M10.642,14.237c0.67,0,1.212,0.616,1.212,1.375c0,0.756-0.542,1.363-1.212,1.363H8.899H6.745
						c-0.672,0-1.223-0.607-1.223-1.363c0-0.76,0.551-1.375,1.223-1.375h2.154H10.642z"/>
				</g>
			</g>
		</g>
	</g>
</g>
</svg>
