<?xml version="1.0" encoding="utf-8"?>
<!-- Generator: Adobe Illustrator 16.0.4, SVG Export Plug-In . SVG Version: 6.00 Build 0)  -->
<!DOCTYPE svg PUBLIC "-//W3C//DTD SVG 1.1//EN" "http://www.w3.org/Graphics/SVG/1.1/DTD/svg11.dtd">
<svg version="1.1" id="Layer_1" xmlns="http://www.w3.org/2000/svg" xmlns:xlink="http://www.w3.org/1999/xlink" x="0px" y="0px"
	 width="40px" height="40px" viewBox="0 0 40 40" enable-background="new 0 0 40 40" xml:space="preserve">
<g>
	<g>
		<g>
			<g>
				<g>
					<polyline fill="#5A595C" points="29.871,29.697 29.549,29.697 29.549,2.585 30.193,2.585 30.193,29.697 29.871,29.697 					"/>
					<circle fill="#5A595C" cx="19.568" cy="5.475" r="3.397"/>
					<path fill="#5A595C" d="M28.057,10.728H18.056c-1.424,0-2.578,1.155-2.578,2.579v24.615h3.329V26.78h1.604v11.143h3.246V14.174
						h4.4l0,0c0.052,0,0.656-0.001,0.865-0.001l0,0h1.057c0.761,0,1.377-0.616,1.377-1.376v-0.692c0-0.761-0.616-1.377-1.377-1.377
						h-1.057l0,0C28.634,10.728,28.345,10.728,28.057,10.728L28.057,10.728"/>
					<g>
						<path fill="#5A595C" d="M30.373,35.217v1.072h-1.094v-1.072H30.373z M28.287,32.232c0.082-0.21,0.193-0.392,0.341-0.543
							c0.146-0.154,0.324-0.273,0.53-0.358c0.205-0.087,0.438-0.13,0.69-0.13c0.332,0,0.605,0.046,0.825,0.136
							c0.222,0.091,0.4,0.203,0.533,0.337c0.136,0.136,0.23,0.28,0.291,0.436c0.056,0.157,0.085,0.302,0.085,0.435
							c0,0.225-0.029,0.406-0.085,0.552c-0.061,0.143-0.131,0.266-0.219,0.368c-0.086,0.103-0.18,0.188-0.283,0.26
							c-0.105,0.072-0.206,0.146-0.297,0.218c-0.092,0.071-0.176,0.152-0.248,0.246c-0.071,0.094-0.115,0.209-0.136,0.348v0.265
							h-0.938v-0.313c0.014-0.199,0.052-0.366,0.115-0.501c0.062-0.133,0.135-0.25,0.218-0.345c0.084-0.095,0.173-0.177,0.265-0.246
							c0.094-0.07,0.18-0.139,0.26-0.209c0.077-0.07,0.141-0.146,0.189-0.23c0.05-0.083,0.071-0.187,0.066-0.312
							c0-0.214-0.053-0.371-0.156-0.473c-0.104-0.103-0.25-0.154-0.435-0.154c-0.126,0-0.234,0.024-0.323,0.074
							c-0.092,0.048-0.166,0.112-0.225,0.194c-0.059,0.08-0.1,0.176-0.129,0.284c-0.026,0.11-0.041,0.228-0.041,0.353h-1.022
							C28.162,32.668,28.206,32.44,28.287,32.232z"/>
					</g>
					<g>
						<path fill="#5A595C" d="M9.257,17.597v1.602H7.625v-1.602H9.257z M6.143,13.137c0.121-0.312,0.291-0.584,0.509-0.811
							c0.219-0.229,0.483-0.407,0.79-0.536c0.31-0.129,0.654-0.192,1.035-0.192c0.493,0,0.902,0.068,1.232,0.202
							c0.328,0.136,0.595,0.304,0.795,0.505s0.345,0.417,0.433,0.648c0.086,0.234,0.128,0.45,0.128,0.65
							c0,0.334-0.042,0.608-0.128,0.822c-0.088,0.215-0.194,0.397-0.324,0.552c-0.127,0.152-0.269,0.281-0.425,0.389
							c-0.157,0.107-0.305,0.216-0.442,0.323c-0.14,0.107-0.261,0.229-0.37,0.369c-0.107,0.139-0.174,0.312-0.201,0.519v0.396H7.77
							v-0.468c0.02-0.297,0.078-0.547,0.171-0.749c0.095-0.2,0.204-0.372,0.328-0.515c0.124-0.142,0.257-0.264,0.394-0.368
							c0.141-0.104,0.268-0.207,0.387-0.312c0.117-0.104,0.213-0.219,0.285-0.344c0.074-0.124,0.106-0.279,0.1-0.466
							c0-0.32-0.078-0.557-0.233-0.709c-0.157-0.152-0.373-0.228-0.65-0.228c-0.188,0-0.349,0.037-0.485,0.108
							c-0.135,0.073-0.244,0.17-0.332,0.292c-0.086,0.12-0.15,0.263-0.191,0.425c-0.041,0.164-0.063,0.339-0.063,0.525H5.951
							C5.956,13.792,6.021,13.449,6.143,13.137z"/>
					</g>
					<circle fill="#5A595C" cx="29.871" cy="33.745" r="4.177"/>
				</g>
			</g>
		</g>
	</g>
</g>
</svg>
