<?xml version="1.0" encoding="utf-8"?>
<!-- Generator: Adobe Illustrator 16.0.4, SVG Export Plug-In . SVG Version: 6.00 Build 0)  -->
<!DOCTYPE svg PUBLIC "-//W3C//DTD SVG 1.1//EN" "http://www.w3.org/Graphics/SVG/1.1/DTD/svg11.dtd">
<svg version="1.1" id="Layer_1" xmlns="http://www.w3.org/2000/svg" xmlns:xlink="http://www.w3.org/1999/xlink" x="0px" y="0px"
	 width="30px" height="30px" viewBox="0 0 30 30" enable-background="new 0 0 30 30" xml:space="preserve">
<path fill="#5E5F5F" d="M30,14.013c0,7.201-6.721,13.033-15,13.033c-1.966,0-3.835-0.327-5.558-0.926
	c-2.405,1.316-4.544,2.213-7.409,2.775c-0.857,0.175-1.198,0.158-1.271,0.053c-0.085-0.125,0.196-0.37,0.445-0.57
	c2.774-2.167,3.237-3.3,3.908-4.571C1.979,21.432,0,17.921,0,14.013c0-7.201,6.712-13.04,15-13.04C23.279,0.972,30,6.812,30,14.013z
	"/>
</svg>
