<?xml version="1.0" encoding="utf-8"?>
<!-- Generator: Adobe Illustrator 16.0.4, SVG Export Plug-In . SVG Version: 6.00 Build 0)  -->
<!DOCTYPE svg PUBLIC "-//W3C//DTD SVG 1.1//EN" "http://www.w3.org/Graphics/SVG/1.1/DTD/svg11.dtd">
<svg version="1.1" id="Layer_1" xmlns="http://www.w3.org/2000/svg" xmlns:xlink="http://www.w3.org/1999/xlink" x="0px" y="0px"
	 width="35.283px" height="37.728px" viewBox="0 0 35.283 37.728" enable-background="new 0 0 35.283 37.728" xml:space="preserve">
<g>
	<g>
		<g>
			<g>
				<g>
					<polygon fill="#FFFFFF" points="29.479,12.072 29.184,12.072 26.592,15.46 27.471,15.46 24.93,19.286 26.369,19.313 
						23.379,23.186 25.162,23.213 23.379,26.31 28.654,26.31 28.654,29.118 26.043,29.118 27.377,30.885 31.668,30.885 
						32.973,29.118 30.057,29.118 30.057,26.31 35.283,26.31 33.551,23.268 35.283,23.186 32.57,19.286 33.732,19.286 
						31.164,15.461 32.068,15.461 29.479,12.072 					"/>
					<path opacity="0.5" fill="#5A595C" d="M29.332,13.859l2.686,4.986l-1.254,0.015l2.41,3.703h-1.553l1.602,2.806h-7.852
						l1.656-2.815l-1.463,0.009l2.584-3.735l-1.328-0.035L29.332,13.859z M29.479,12.072h-0.295l-2.592,3.389h0.881l-2.543,3.826
						l1.439,0.028l-2.99,3.873l1.785,0.026l-1.785,3.097h5.275v2.808h-2.611l1.334,1.767h4.291l1.305-1.767h-2.916V26.31h5.227
						l-1.732-3.042l1.732-0.081l-2.713-3.901h1.164l-2.57-3.825h0.904L29.479,12.072L29.479,12.072z"/>
					<g>
						<path fill="#FFFFFF" d="M17.447,7.952L0,11.192l0.928,5.001l17.447-3.241L17.447,7.952z"/>
					</g>
					<g>
						<path fill="#5A595C" d="M17.447,7.952L0,11.192l0.928,5.001l17.447-3.241L17.447,7.952z M0.355,11.619l0.24-0.044
							c-0.055,0.085-0.125,0.155-0.211,0.21L0.355,11.619z M0.467,12.217c0.307-0.14,0.533-0.413,0.619-0.733l0.27-0.05
							c-0.082,0.462-0.398,0.855-0.844,1.033L0.467,12.217z M0.59,12.885c0.668-0.232,1.131-0.838,1.194-1.531l0.128-0.023
							l0.066,0.361c-0.168,0.665-0.666,1.219-1.344,1.439L0.59,12.885L0.59,12.885z M0.713,13.545
							c0.607-0.183,1.1-0.589,1.406-1.106l0.064,0.354c-0.344,0.469-0.836,0.829-1.426,1L0.713,13.545z M0.836,14.206
							c0.57-0.158,1.066-0.47,1.447-0.881l0.057,0.3c-0.398,0.386-0.895,0.676-1.459,0.827L0.836,14.206z M0.957,14.862
							c0.557-0.144,1.055-0.408,1.471-0.758l0.053,0.281c-0.428,0.332-0.926,0.583-1.477,0.724L0.957,14.862z M1.078,15.519
							c0.549-0.134,1.049-0.369,1.486-0.678l0.05,0.268c-0.444,0.298-0.944,0.523-1.489,0.657L1.078,15.519z M2.887,15.469
							l-0.803-4.314L17.182,8.35l0.803,4.314L2.887,15.469z"/>
						<path fill="#5A595C" d="M4.277,12.983c0.064,0.345-0.051,0.655-0.254,0.694c-0.203,0.038-0.422-0.211-0.484-0.558
							c-0.064-0.342,0.049-0.654,0.252-0.692C3.996,12.389,4.213,12.638,4.277,12.983z"/>
						
							<ellipse transform="matrix(0.983 -0.1833 0.1833 0.983 -1.7167 3.0924)" fill="#5A595C" cx="15.865" cy="10.83" rx="0.376" ry="0.636"/>
					</g>
					<g>
						<path fill="#5A595C" d="M24.645,6.013c1.334-1.475,1.222-3.748-0.254-5.084c-1.473-1.333-3.748-1.217-5.082,0.252
							c-1.338,1.476-1.225,3.748,0.25,5.084C21.033,7.604,23.311,7.487,24.645,6.013z M24.971,27.828l-0.01-7.167h-0.012
							c0-0.023,0.002-0.049,0.002-0.072l-0.359-9.687c-0.059-1.678-1.475-2.993-3.15-2.929c-0.887,0.03-1.662,0.448-2.2,1.068
							L19.24,9.041V9.04l-4.309,5.259l-5.615,0.256l-0.037,2.348l6.34,0.451h0.018c0.461,0,0.887-0.201,1.18-0.555l1.822-2.216
							l0.23,6.189l-1.209,6.597l-0.029,0.361l0.533,9.998l2.979-0.036l0.299-9.817l0.893-4.908l-0.047,0.739l-0.283,4.217
							l0.52,9.786l3.033-0.305L24.971,27.828z"/>
					</g>
					<g>
						<path fill="#FFFFFF" d="M15.053,34.498c0.041,1.262-4.404,1.642-4.531,0.178c-0.08-0.923,0.043-2.858,0-3.888
							c-0.021-0.549,4.531-0.794,4.531,0.082C15.053,32.212,15.02,33.438,15.053,34.498z"/>
						<path fill="#5A595C" d="M15.578,30.238v4.259c0,0.804-1.41,1.227-2.805,1.227c-1.393,0-2.805-0.423-2.805-1.227v-0.545
							c0.133,0.028,0.272,0.042,0.414,0.042c0.043,0,0.084,0,0.125-0.003v0.507c0,0.232,0.801,0.687,2.266,0.687
							c1.466,0,2.266-0.454,2.266-0.687v-3.939C15.25,30.466,15.434,30.361,15.578,30.238z"/>
						<path fill="#5A595C" d="M9.969,30.237c0.014,0.016,0.029,0.031,0.043,0.047c0.096,0.093,0.205,0.178,0.326,0.256
							c0.055,0.035,0.11,0.068,0.17,0.101v3.545c-0.012,0.001-0.021,0.004-0.031,0.004c-0.029,0.003-0.057,0.005-0.088,0.005
							c-0.102,0-0.195-0.021-0.279-0.062l-0.008-0.004c-0.028-0.012-0.053-0.026-0.078-0.044c-0.02-0.013-0.039-0.026-0.055-0.042
							v-3.669V30.237z"/>
						<path fill="#5A595C" d="M12.773,29.111c-1.547,0-2.799,0.475-2.799,1.059c0,0.203,0.15,0.392,0.416,0.553
							c0.494,0.303,1.375,0.501,2.383,0.501s1.891-0.198,2.383-0.501c0.266-0.161,0.417-0.35,0.417-0.553
							C15.573,29.586,14.32,29.111,12.773,29.111z M14.789,30.482c-0.389-0.182-1.066-0.36-2.016-0.36
							c-0.947,0-1.625,0.179-2.018,0.36c-0.262-0.123-0.398-0.244-0.398-0.312c0-0.175,0.83-0.671,2.416-0.671
							c1.584,0,2.416,0.496,2.416,0.671C15.189,30.238,15.055,30.359,14.789,30.482z"/>
						<path fill="#5A595C" d="M10.666,33.785c-0.131,0-0.258-0.016-0.377-0.045c-0.121-0.031-0.238-0.075-0.35-0.137
							c-0.361-0.196-0.594-0.492-0.689-0.877c-0.232-0.934,0.475-2.205,0.732-2.638c0.033,0.094,0.055,0.15,0.123,0.205
							c-0.271,0.469-0.832,1.566-0.633,2.379c0.08,0.323,0.269,0.561,0.576,0.729c0.047,0.024,0.096,0.047,0.148,0.066
							c0.145,0.057,0.303,0.086,0.475,0.086l0,0c0.043,0,0.088-0.002,0.133-0.005c1.309-0.105,2.853-1.775,3.492-2.539
							c0.125-0.021,0.244-0.045,0.357-0.072c-0.684,0.846-2.381,2.748-3.873,2.842C10.742,33.783,10.705,33.785,10.666,33.785z"/>
					</g>
				</g>
			</g>
		</g>
	</g>
</g>
</svg>
