<?xml version="1.0" encoding="utf-8"?>
<!-- Generator: Adobe Illustrator 16.0.4, SVG Export Plug-In . SVG Version: 6.00 Build 0)  -->
<!DOCTYPE svg PUBLIC "-//W3C//DTD SVG 1.1//EN" "http://www.w3.org/Graphics/SVG/1.1/DTD/svg11.dtd">
<svg version="1.1" id="Layer_1" xmlns="http://www.w3.org/2000/svg" xmlns:xlink="http://www.w3.org/1999/xlink" x="0px" y="0px"
	 width="600px" height="70px" viewBox="0 0 600 70" enable-background="new 0 0 600 70" xml:space="preserve">
<g>
	<path fill="#4F97D2" d="M307.205,22.377v32.381h9.281V22.377H307.205z M308.09,54.264v-0.447c0.135,0.127,0.238,0.277,0.309,0.447
		H308.09z M309.199,54.264c-0.148-0.598-0.562-1.096-1.107-1.357v-0.498c0.8,0.301,1.402,1,1.573,1.855H309.199z M310.438,54.264
		c-0.191-1.275-1.125-2.309-2.346-2.654v-0.236h0.671c1.137,0.523,1.966,1.604,2.136,2.891H310.438L310.438,54.264z M311.666,54.264
		c-0.127-1.15-0.69-2.17-1.518-2.893h0.656c0.728,0.773,1.209,1.779,1.32,2.893H311.666z M312.891,54.264
		c-0.094-1.078-0.486-2.072-1.098-2.893h0.557c0.559,0.844,0.914,1.828,0.998,2.893H312.891z M314.109,54.264
		c-0.073-1.047-0.38-2.025-0.869-2.893h0.521c0.453,0.877,0.736,1.857,0.807,2.893H314.109z M315.328,54.264
		c-0.061-1.025-0.312-2.004-0.721-2.893h0.498c0.386,0.898,0.623,1.871,0.682,2.893H315.328z M315.84,51.004h-8.008v-28.02h8.008
		V51.004z"/>
	<circle fill="#4F97D2" cx="324.664" cy="15.072" r="4.477"/>
	<path fill="#4F97D2" d="M340.197,23.809v0.914c0,0.918-0.684,1.68-1.572,1.795v3.304c0.336,0.092,0.582,0.4,0.582,0.768
		c0,0.363-0.246,0.672-0.582,0.764c-0.066,0.02-0.14,0.031-0.213,0.031h-1.778c-0.05,0-0.099-0.004-0.147-0.012
		c-0.16-0.031-0.304-0.107-0.418-0.221c-0.145-0.143-0.233-0.342-0.233-0.562c0-0.389,0.279-0.711,0.651-0.783v-3.271h-6.434V57.83
		h-4.279V43.146h-2.111V57.83h-4.387V25.394c0-1.876,1.521-3.398,3.396-3.398h13.814v-3.047h2.139v3.064
		C339.514,22.129,340.197,22.889,340.197,23.809z"/>
	<path fill="#4F97D2" d="M342.893,15.166v2.873h-2.135c-0.059-0.42-0.419-0.742-0.855-0.742c-0.476,0-0.865,0.387-0.865,0.865
		c0,0-0.041,0.375-0.428,0.375h-2.423c0,0,0.089-1.322-1.09-1.322c0,0-0.461,0-0.886,0c-1.826,0-2.17,2.453-2.17,2.453h-1.07
		c0,0,0-2.307,2.055-3.719c1.4-0.959,2.897-1.162,3.25-1.182c0.053-0.006,0.076-0.006,0.076-0.006h2.111
		c0.43,0,0.671,0.115,0.671,0.404c0,0.096,0.018,0.188,0.052,0.271c0.062,0.166,0.18,0.307,0.332,0.396
		c0.112,0.064,0.244,0.102,0.385,0.102c0.291,0,0.545-0.164,0.677-0.402c0.015-0.031,0.031-0.062,0.041-0.096
		c0.033-0.084,0.051-0.176,0.051-0.271H342.893L342.893,15.166z"/>
	<ellipse fill="#4F97D2" cx="311.844" cy="48.366" rx="1.16" ry="0.687"/>
	<ellipse fill="#4F97D2" cx="311.844" cy="26.173" rx="1.16" ry="0.686"/>
</g>
<g>
	<rect x="275.004" y="10.596" fill="#8DCEE0" width="38" height="2"/>
	<rect x="285.503" y="41.609" fill="#8DCEE0" width="17" height="2"/>
	<rect x="298.705" y="16.277" fill="#8DCEE0" width="17" height="2"/>
	<rect x="291.77" y="48.053" fill="#8DCEE0" width="10.734" height="2"/>
</g>
<g>
	<circle fill="#4F97D2" cx="198.223" cy="14.857" r="4.574"/>
	<path fill="#4F97D2" d="M212.241,26.569c1.025,0,1.854-0.828,1.854-1.851v-0.934c0-1.022-0.828-1.854-1.854-1.854h-1.422v-0.975
		c1.645-0.534,1.814-3.279,1.814-3.279v-1.139h-4.924v1.139c0,0,0.275,2.75,1.943,3.281v0.973h-13.465
		c-1.918,0-3.474,1.556-3.474,3.473v33.146h4.484V43.545h2.158v15.006h4.372V26.57h5.924v21.299
		c-0.365,0.209-0.881,0.441-1.477,0.545c-1.193,0.205-1.451,0-1.451,0s0,2.59,0,5.545s3.511,4.592,3.511,4.592
		s3.511-1.637,3.511-4.592s0-5.545,0-5.545s-0.258,0.205-1.449,0c-0.599-0.104-1.114-0.336-1.479-0.545v-21.3H212.241z
		 M208.708,17.678h2.991c0,0-0.165,2.314-1.528,2.314C208.806,19.992,208.708,17.678,208.708,17.678z"/>
	<path fill="#4F97D2" d="M184.322,27.385l3.128,5.807l-1.461,0.018l2.807,4.314h-1.807l1.866,3.27h-9.147l1.93-3.279l-1.704,0.01
		l3.011-4.352l-1.549-0.041L184.322,27.385z M184.493,25.303h-0.344l-3.02,3.947h1.025l-2.961,4.457l1.676,0.031l-3.482,4.512
		l2.078,0.031l-2.078,3.605h6.145v3.271h-3.041l1.553,2.059h4.998l1.521-2.059h-3.396v-3.271h6.088l-2.02-3.543l2.02-0.094
		l-3.16-4.543h1.354l-2.993-4.456h1.055L184.493,25.303L184.493,25.303z"/>
</g>
<g>
	<rect x="146.887" y="10.283" fill="#8DCEE0" width="38" height="2"/>
	<rect x="157.386" y="41.297" fill="#8DCEE0" width="17.001" height="2"/>
	<rect x="170.587" y="15.965" fill="#8DCEE0" width="17.001" height="2"/>
	<rect x="163.652" y="47.74" fill="#8DCEE0" width="10.735" height="2"/>
</g>
<g>
	<path fill="#4F97D2" d="M104.86,22.212h-1.46v-3.371c1.467-0.447,2.531-1.809,2.531-3.418c0-1.26-0.652-2.367-1.637-3.004V15.2
		c0,0.494-0.4,0.893-0.895,0.893h-2.086c-0.492,0-0.893-0.398-0.893-0.893v-2.781c-0.984,0.637-1.638,1.744-1.638,3.004
		c0,1.609,1.067,2.971,2.53,3.418v3.371H88.831c-1.915,0-3.468,1.555-3.468,3.469v33.093h4.477V43.793h2.154v14.981h4.367V26.843
		h4.955v4.027c-1.13,0.422-1.934,1.512-1.934,2.789c0,1.647,1.333,2.979,2.979,2.979c1.642,0,2.975-1.332,2.975-2.979
		c0-1.277-0.804-2.367-1.936-2.789v-4.027h1.46c1.021,0,1.849-0.826,1.849-1.85v-0.93C106.708,23.042,105.881,22.212,104.86,22.212z
		 M103.847,33.66c0,0.822-0.666,1.489-1.486,1.489c-0.825,0-1.492-0.667-1.492-1.489c0-0.824,0.667-1.488,1.492-1.488
		C103.181,32.171,103.847,32.837,103.847,33.66z"/>
	<circle fill="#4F97D2" cx="90.861" cy="15.148" r="4.567"/>
	<path fill="#4F97D2" d="M79.083,40.236c-2.464,0-4.469-2.004-4.469-4.467c0-0.521,0.089-1.032,0.264-1.518l0.02-0.045l0.107-0.268
		l4.08-9.967l0.678,1.663l3.525,8.617c0.178,0.486,0.266,0.997,0.266,1.518C83.554,38.232,81.55,40.236,79.083,40.236z
		 M75.895,34.64c-0.128,0.364-0.193,0.741-0.193,1.129c0,1.863,1.517,3.383,3.382,3.383s3.384-1.52,3.384-3.383
		c0-0.389-0.063-0.768-0.194-1.129l-0.117-0.291l-3.072-7.506L75.895,34.64z"/>
</g>
<g>
	<rect x="39.218" y="9.005" fill="#8DCEE0" width="38" height="2"/>
	<rect x="49.718" y="40.02" fill="#8DCEE0" width="17.001" height="2"/>
	<rect x="62.919" y="14.687" fill="#8DCEE0" width="17.001" height="2"/>
	<rect x="55.984" y="46.462" fill="#8DCEE0" width="10.735" height="2"/>
</g>
<g>
	<path fill="#4F97D2" d="M450.775,56.886v1.062h-2.727c-3.537,0-4.545-3.157-4.584-4.826V26.46h-4.637v31.26h-4.273V43.055h-2.109
		V57.72h-4.381V25.32c0-1.875,1.518-3.395,3.393-3.395h12.008v-3.572c-0.205-0.18-0.371-0.397-0.441-0.496l-0.613-0.854
		c-0.291-0.402-0.518-1.104-0.518-1.6v-0.22c0-0.533,0.367-0.982,0.861-1.104v-2.796h0.762v2.761h1.062v-2.761h0.76v2.828
		c0.443,0.153,0.76,0.576,0.76,1.072v0.22c0,0.493-0.217,1.194-0.494,1.603l-0.572,0.835c-0.076,0.112-0.27,0.377-0.502,0.569v3.516
		h2.621c1,0,1.811,0.812,1.811,1.812v0.911c0,1.001-0.811,1.812-1.811,1.812h-2.621v26.65c0.002,0.14,0.143,3.774,3.52,3.774
		H450.775L450.775,56.886z"/>
	<circle fill="#4F97D2" cx="433.445" cy="15.01" r="4.47"/>
	<path fill="#4F97D2" d="M420.101,49.35l-1.037-0.225l0.854-7.105h-2.469l1.385-5.545h-3.091l2.826-10.526h6.33l-2.079,5.689h2.08
		l-2.232,6.085h1.119L420.101,49.35z M418.812,40.956h2.307l-0.322,2.678l1.536-4.849h-1.19l2.232-6.084h-2.077l2.077-5.688h-3.988
		l-2.257,8.396h3.067L418.812,40.956z"/>
</g>
<g>
	<rect x="382.663" y="9.033" fill="#8DCEE0" width="38" height="2"/>
	<rect x="393.162" y="40.048" fill="#8DCEE0" width="17.001" height="2"/>
	<rect x="406.363" y="14.715" fill="#8DCEE0" width="17.001" height="2"/>
	<rect x="399.428" y="46.491" fill="#8DCEE0" width="10.734" height="2"/>
</g>
<g>
	<path fill="#4F97D2" d="M550.884,19.537c2.471,0,4.473-2.002,4.473-4.471s-2.002-4.471-4.473-4.471
		c-2.467,0-4.469,2.002-4.469,4.471S548.417,19.537,550.884,19.537z"/>
	<path fill="#4F97D2" d="M564.5,15.49l-0.66-0.66c-0.723-0.723-1.896-0.725-2.621,0l-7.465,7.465h-6.311l-7.465-7.465
		c-0.727-0.725-1.898-0.723-2.623,0l-0.66,0.66c-0.723,0.723-0.723,1.895,0.004,2.619l8.805,8.805v30.861h4.273h0.107V43.111h2.004
		v14.664h0.107h4.273c0,0,0-22.74,0-31.437l8.229-8.229C565.222,17.385,565.222,16.213,564.5,15.49z"/>
</g>
<g>
	<rect x="500.482" y="23.725" fill="#8DCEE0" width="38" height="2"/>
	<rect x="524.49" y="45.195" fill="#8DCEE0" width="17" height="2"/>
	<rect x="524.183" y="29.405" fill="#8DCEE0" width="17" height="2"/>
	<rect x="530.755" y="51.637" fill="#8DCEE0" width="10.734" height="2"/>
</g>
</svg>
