<?xml version="1.0" encoding="utf-8"?><!DOCTYPE svg PUBLIC "-//W3C//DTD SVG 1.1//EN" "http://www.w3.org/Graphics/SVG/1.1/DTD/svg11.dtd"><svg width="60" height="897" viewBox="0 0 60 897" xmlns="http://www.w3.org/2000/svg" xmlns:xlink="http://www.w3.org/1999/xlink"><svg width="36.26" height="33.26" viewBox="-10 -10 36.26 33.26" id="icon-checkmark-gray"><g fill="#414042"><path opacity=".7" d="M16.166 2.37L13.89.094c-.125-.125-.33-.125-.455 0l-3.8 3.803-4.03 4.03-2.78-2.774c-.126-.127-.33-.127-.456 0L.093 7.428c-.125.125-.125.33 0 .457l2.908 2.907.004.004 2.37 2.365c.126.126.33.126.457 0l3.8-3.8 6.533-6.533c.125-.126.125-.33 0-.457zM3.776 12.565"/></g></svg><svg width="40" height="40" viewBox="-10 -10 40 40" id="icon-danger" y="34"><circle fill="#EF4438" cx="10" cy="10" r="10"/><path fill="#fff" d="M14.93 12.868c.094.095.094.25 0 .345L13.21 14.93c-.095.094-.25.094-.345 0L10 12.06l-2.867 2.87c-.096.094-.25.094-.346 0L5.07 13.212c-.094-.095-.094-.25 0-.345L7.94 10 5.07 7.132c-.094-.095-.094-.25 0-.345L6.788 5.07c.096-.094.25-.094.346 0L10 7.94l2.867-2.87c.096-.094.25-.094.345 0l1.717 1.717c.094.095.094.25 0 .345L12.06 10l2.87 2.868z"/></svg><svg width="60" height="60" viewBox="-10 -10 60 60" id="icon-edit-cog" y="74"><path fill="#006838" d="M17.14 29.958l-.728-.27c.058-.53.04-1.073-.062-1.612l.704-.325c.44-.2.634-.724.43-1.165l-.41-.892c-.202-.44-.725-.634-1.164-.43l-.706.324c-.344-.426-.744-.793-1.186-1.096l.27-.727c.168-.454-.065-.96-.52-1.13l-.923-.34c-.44-.16-.966.08-1.128.52l-.27.73c-.53-.058-1.072-.04-1.612.06L9.51 22.9c-.2-.44-.725-.633-1.164-.43l-.893.41c-.44.203-.632.726-.43 1.165l.324.705c-.427.345-.794.745-1.096 1.187l-.727-.27c-.44-.163-.966.08-1.13.52l-.34.922c-.08.22-.07.458.026.67.098.214.273.376.492.456l.73.27c-.058.532-.04 1.075.06 1.613l-.702.323c-.44.203-.632.726-.43 1.165l.41.893c.204.44.727.634 1.166.432l.704-.325c.345.427.745.793 1.187 1.095l-.27.73c-.08.22-.072.457.026.67.098.213.273.376.493.458l.924.34c.22.08.458.07.67-.026.215-.098.377-.273.457-.494l.27-.73c.532.06 1.074.04 1.613-.06l.324.705c.202.44.726.632 1.165.43l.892-.41c.44-.204.633-.726.43-1.166l-.323-.706c.425-.345.792-.744 1.093-1.186l.73.27c.22.082.458.072.672-.026.212-.1.374-.274.456-.494l.34-.922c.168-.455-.065-.96-.52-1.128zm-4.83 2.293c-.46.214-.947.32-1.45.32-1.353 0-2.592-.793-3.156-2.02-.8-1.74-.037-3.807 1.7-4.607.46-.212.95-.32 1.452-.32 1.352 0 2.59.793 3.156 2.02.8 1.74.038 3.807-1.7 4.608zM25.827 32.472l-.406-.15c.033-.295.023-.598-.032-.897l.392-.18c.245-.113.353-.404.24-.65l-.23-.497c-.113-.246-.404-.354-.648-.24l-.393.18c-.192-.237-.416-.44-.66-.61l.148-.404c.094-.253-.036-.535-.29-.63l-.514-.188c-.244-.09-.537.044-.627.29l-.15.405c-.295-.03-.598-.02-.897.035l-.18-.392c-.114-.245-.405-.353-.65-.24l-.497.23c-.245.112-.352.403-.24.648l.182.393c-.237.192-.442.415-.61.66l-.405-.148c-.244-.092-.537.042-.628.288l-.19.513c-.045.124-.04.256.015.375.055.12.152.21.274.254l.407.15c-.032.295-.02.598.035.898l-.393.18c-.246.114-.354.405-.24.65l.23.497c.11.243.402.35.646.24l.393-.182c.19.237.414.44.66.61l-.15.405c-.046.122-.04.255.015.374.055.118.152.21.274.255l.513.19c.122.044.255.04.374-.015.12-.055.21-.153.253-.275l.15-.406c.297.032.598.022.898-.034l.18.393c.114.244.405.353.65.24l.496-.23c.245-.114.353-.404.24-.65l-.182-.392c.238-.19.442-.414.61-.66l.405.15c.123.045.256.04.375-.015.117-.055.21-.153.254-.275l.19-.513c.094-.253-.036-.536-.29-.628zm-2.69 1.278c-.256.117-.527.177-.808.177-.754 0-1.443-.44-1.758-1.125-.446-.968-.02-2.12.947-2.566.256-.118.527-.177.807-.177.753 0 1.442.44 1.758 1.124.445.97.02 2.12-.947 2.566zM35.035 17.015l-1.226-.453c.096-.894.063-1.806-.105-2.712l1.185-.546c.74-.34 1.062-1.22.723-1.96l-.69-1.5c-.34-.74-1.22-1.065-1.96-.723l-1.185.548c-.58-.718-1.252-1.334-1.993-1.842l.452-1.226c.28-.764-.11-1.615-.873-1.896l-1.552-.575c-.74-.272-1.622.135-1.896.873l-.452 1.227c-.893-.097-1.806-.064-2.71.103l-.547-1.184c-.34-.74-1.22-1.065-1.96-.725l-1.5.69c-.74.342-1.063 1.222-.725 1.96l.547 1.184c-.717.58-1.335 1.252-1.843 1.994l-1.224-.452c-.74-.276-1.624.132-1.897.873l-.572 1.55c-.137.37-.12.772.043 1.13.167.358.462.63.83.766l1.227.455c-.098.893-.065 1.806.103 2.712l-1.185.545c-.74.34-1.063 1.22-.723 1.958l.69 1.502c.34.738 1.22 1.064 1.96.723l1.183-.545c.58.717 1.253 1.333 1.995 1.84l-.452 1.227c-.138.37-.122.77.043 1.13.164.357.46.63.828.768l1.55.572c.37.136.772.12 1.13-.043.358-.165.63-.46.767-.83l.454-1.226c.893.097 1.804.065 2.71-.102l.546 1.184c.34.74 1.22 1.064 1.96.723l1.5-.69c.74-.342 1.064-1.22.724-1.96l-.547-1.184c.718-.582 1.335-1.253 1.842-1.996l1.226.454c.37.137.773.12 1.132-.045.357-.165.63-.46.766-.83l.573-1.55c.28-.766-.11-1.617-.875-1.898zm-8.12 3.856c-.774.357-1.595.538-2.44.538-2.274 0-4.355-1.333-5.307-3.397-1.347-2.924-.063-6.398 2.86-7.745.773-.357 1.595-.537 2.438-.537 2.273 0 4.357 1.333 5.308 3.396 1.346 2.925.064 6.4-2.86 7.747z"/></svg><svg width="60" height="60" viewBox="-10 -10 60 60" id="icon-edit-pen" y="134"><g fill="#006838"><path d="M11.776 7.042l1.245-1.244c.07-.07.187-.07.258 0L34.26 26.755c.07.07.07.184 0 .255l-1.263 1.263-21.22-21.23zM32.998 28.273L11.776 7.043"/><path d="M5.93 12.88l3.36-3.354 21.22 21.23-3.34 3.335c-.034.036-.082.055-.127.055-.047 0-.094-.02-.13-.054L5.932 13.137c-.033-.034-.053-.08-.053-.128s.02-.093.054-.128zM9.29 9.527l21.22 21.23"/><path d="M31.163 30.106L9.94 8.876l1.182-1.18 21.223 21.228zM1.715 3.917l2.334-2.33C4.716.917 5.606.55 6.555.55c.946 0 1.837.368 2.507 1.037l2.332 2.33c.035.033.055.08.055.128s-.02.094-.055.128l-7.09 7.08c-.033.035-.08.055-.13.055-.048 0-.093-.02-.126-.054l-2.335-2.33C1.045 8.255.677 7.367.677 6.422c0-.945.368-1.834 1.038-2.503zM35.627 28.363c.045-.045.108-.064.17-.048.062.015.11.06.13.122l3.39 10.778c.02.065.002.136-.047.183-.035.035-.08.052-.126.052-.02 0-.04-.003-.062-.01l-10.48-3.697c-.058-.02-.103-.07-.116-.13s.005-.125.05-.168l7.09-7.082z"/></g></svg><svg width="40" height="40" viewBox="-10 -10 40 40" id="icon-edit-single-cog" y="194"><path fill="#006838" d="M18.568 11.17l-.994-.367c.078-.725.052-1.464-.084-2.2l.96-.442c.6-.274.862-.988.587-1.588l-.56-1.217c-.277-.6-.99-.865-1.59-.587l-.962.443c-.47-.58-1.015-1.08-1.615-1.493l.366-.994c.228-.62-.09-1.31-.708-1.538L12.71.72c-.6-.22-1.315.11-1.538.71l-.367.994c-.724-.078-1.464-.052-2.198.083l-.442-.96c-.275-.6-.99-.863-1.59-.587l-1.218.56c-.6.277-.862.99-.588 1.59l.442.96c-.58.47-1.08 1.015-1.492 1.618l-.993-.367c-.6-.223-1.316.108-1.54.71L.726 7.286c-.11.3-.1.626.034.916.135.29.373.512.674.622l.993.368c-.08.724-.053 1.464.083 2.2l-.96.442c-.6.277-.862.99-.587 1.588l.56 1.22c.278.598.99.862 1.59.585l.96-.442c.47.582 1.017 1.082 1.62 1.494l-.368.994c-.11.3-.1.625.035.916.133.29.373.51.672.623l1.258.464c.3.11.625.098.916-.035.29-.134.512-.374.62-.673l.37-.996c.725.08 1.463.053 2.2-.083l.44.96c.277.6.99.864 1.59.587l1.217-.56c.6-.277.863-.99.587-1.59l-.443-.96c.582-.47 1.083-1.015 1.493-1.617l.994.368c.3.11.627.097.918-.037.29-.133.51-.373.62-.67l.466-1.26c.227-.62-.09-1.31-.71-1.54zm-6.586 3.13c-.63.288-1.294.435-1.98.435-1.844 0-3.53-1.082-4.303-2.755-1.094-2.373-.053-5.19 2.317-6.282.63-.29 1.295-.436 1.98-.436 1.843 0 3.534 1.08 4.304 2.754 1.093 2.372.053 5.19-2.318 6.283z"/></svg><svg width="42" height="42" viewBox="-10 -10 42 42" id="icon-geolocate" y="234"><path fill="#006838" d="M22 11c0-.413-.025-.82-.07-1.223h-1.237c-.552-4.42-4.048-7.92-8.47-8.47V.07C11.82.027 11.413 0 11 0s-.82.027-1.223.072v1.235c-4.42.55-7.92 4.05-8.47 8.47H.07C.026 10.18 0 10.587 0 11c0 .413.026.82.072 1.222h1.234c.552 4.42 4.05 7.918 8.47 8.472v1.234c.405.046.81.072 1.224.072s.82-.026 1.223-.07V20.69c4.42-.55 7.918-4.048 8.472-8.47h1.234c.045-.4.07-.807.07-1.222zm-9.777 7.224v-1.112c0-.676-.548-1.223-1.223-1.223-.674 0-1.223.545-1.223 1.222v1.112c-3.066-.516-5.484-2.932-6-6h1.11c.677 0 1.224-.55 1.224-1.223 0-.674-.546-1.222-1.222-1.222H3.776c.517-3.067 2.935-5.484 6-6v1.11c0 .676.55 1.224 1.224 1.224.675 0 1.223-.548 1.223-1.223V3.776c3.068.516 5.485 2.933 6.002 6h-1.112c-.677 0-1.223.55-1.223 1.224 0 .675.546 1.223 1.223 1.223h1.112c-.52 3.07-2.934 5.485-6.002 6z"/></svg><svg width="36" height="36" viewBox="-10 -10 36 36" id="icon-geolocate-sm" y="276"><path fill="#006838" d="M16 8c0-.3-.02-.597-.052-.89h-.9c-.4-3.214-2.942-5.758-6.16-6.16V.053C8.6.02 8.302 0 8 0s-.596.02-.89.053V.95C3.897 1.353 1.353 3.897.95 7.11H.053C.02 7.405 0 7.7 0 8c0 .3.02.596.053.89H.95c.4 3.214 2.946 5.758 6.16 6.16v.9c.294.03.59.05.89.05s.597-.02.89-.052v-.9c3.214-.4 5.76-2.944 6.16-6.16h.898C15.98 8.598 16 8.302 16 8zm-7.11 5.254v-.81c0-.49-.4-.888-.89-.888s-.89.397-.89.89v.808C4.88 12.88 3.123 11.122 2.75 8.89h.808c.49 0 .89-.4.89-.89s-.398-.89-.89-.89h-.81C3.122 4.88 4.88 3.124 7.11 2.747v.81c0 .49.4.888.89.888s.89-.398.89-.89v-.807c2.23.375 3.99 2.133 4.364 4.365h-.81c-.49 0-.888.398-.888.89 0 .49.396.888.89.888h.808c-.377 2.232-2.133 3.988-4.365 4.364z"/></svg><svg width="42" height="42" viewBox="-10 -10 42 42" id="icon-geolocate-white" y="312"><path fill="#fff" d="M22 11c0-.413-.025-.82-.07-1.223h-1.237c-.552-4.42-4.048-7.92-8.47-8.47V.07C11.82.027 11.413 0 11 0s-.82.027-1.223.072v1.235c-4.42.55-7.92 4.05-8.47 8.47H.07C.026 10.18 0 10.587 0 11c0 .413.026.82.072 1.222h1.234c.55 4.42 4.05 7.918 8.47 8.472v1.234c.405.046.81.072 1.224.072s.82-.026 1.223-.07V20.69c4.42-.55 7.918-4.048 8.47-8.47h1.236c.045-.4.07-.807.07-1.222zm-9.777 7.224v-1.112c0-.676-.548-1.223-1.223-1.223-.674 0-1.223.545-1.223 1.222v1.112c-3.066-.516-5.484-2.932-6-6h1.11c.677 0 1.224-.55 1.224-1.223 0-.674-.546-1.222-1.222-1.222H3.776c.517-3.067 2.935-5.484 6-6v1.11c0 .676.55 1.224 1.224 1.224.675 0 1.223-.548 1.223-1.223V3.776c3.068.516 5.485 2.933 6.002 6h-1.112c-.677 0-1.223.55-1.223 1.224 0 .675.546 1.223 1.223 1.223h1.112c-.52 3.07-2.934 5.485-6.002 6z"/></svg><svg width="36" height="36" viewBox="-10 -10 36 36" id="icon-geolocate-white-sm" y="354"><path fill="#fff" d="M16 8c0-.3-.02-.597-.052-.89h-.9c-.4-3.214-2.942-5.758-6.16-6.16V.053C8.6.02 8.302 0 8 0s-.596.02-.89.053V.95C3.897 1.353 1.353 3.897.95 7.11H.053C.02 7.405 0 7.7 0 8c0 .3.02.596.053.89H.95c.4 3.214 2.946 5.758 6.16 6.16v.9c.294.03.59.05.89.05s.597-.02.89-.052v-.9c3.214-.4 5.76-2.944 6.16-6.16h.898C15.98 8.598 16 8.302 16 8zm-7.11 5.254v-.81c0-.49-.4-.888-.89-.888s-.89.397-.89.89v.808C4.88 12.88 3.123 11.122 2.75 8.89h.808c.49 0 .89-.4.89-.89s-.398-.89-.89-.89h-.81C3.122 4.88 4.88 3.124 7.11 2.747v.81c0 .49.4.888.89.888s.89-.398.89-.89v-.807c2.23.375 3.99 2.133 4.364 4.365h-.81c-.49 0-.888.398-.888.89 0 .49.396.888.89.888h.808c-.377 2.232-2.133 3.988-4.365 4.364z"/></svg><svg width="42.53" height="33.53" viewBox="-10 -10 42.53 33.53" id="icon-location" y="390"><path fill="#006838" d="M22.48.2c-.095-.156-.282-.234-.46-.186L9.444 3.444c-.07.02-.132.056-.184.108l-9.143 9.29c-.128.13-.154.332-.06.49.092.16.278.236.458.188l12.575-3.43c.033-.01.066-.023.1-.04.028-.02.058-.04.083-.067l9.144-9.29c.13-.13.153-.333.062-.492zM3.51 11.313l6.125-6.226 2.3 3.928-8.426 2.298z"/></svg><svg width="38.39" height="30.99" viewBox="-10 -10 38.39 30.99" id="icon-reveal" y="424"><path fill="#006838" d="M18.387 0L9.193 10.986 0 0z"/></svg><svg width="38.39" height="30.99" viewBox="-10 -10 38.39 30.99" id="icon-reveal-gray" y="455"><path fill="#414042" d="M18.387 0L9.193 10.986 0 0z" opacity=".7"/></svg><svg width="38.39" height="30.99" viewBox="-10 -10 38.39 30.99" id="icon-reveal-white" y="486"><path fill="#fff" d="M18.387 0L9.193 10.986 0 0z"/></svg><svg width="40" height="40" viewBox="-10 -10 40 40" id="icon-success" y="517"><circle fill="#70C383" cx="10" cy="10" r="10"/><path fill="#fff" d="M16.91 7.078l-1.454-1.47c-.158-.157-.425-.146-.583.01l-6.12 6.12L6.07 9.057c-.16-.158-.414-.158-.57 0l-1.463 1.46c-.075.077-.118.18-.118.287s.042.21.117.286l4.43 4.43c.08.078.183.117.287.117.103 0 .206-.04.285-.118l7.866-7.868c.076-.076.12-.18.12-.286 0-.108-.04-.213-.116-.288z"/></svg><svg width="60" height="60" viewBox="-10 -10 60 60" id="icon-user-blank" y="557"><path fill="#006838" d="M24.946 28.515c-.987-.156-1.007-2.87-1.007-2.87s2.897-2.872 3.53-6.732c1.7 0 2.75-4.104 1.05-5.55.07-1.52 2.186-11.933-8.52-11.933s-8.59 10.413-8.52 11.933c-1.7 1.445-.65 5.55 1.05 5.55.632 3.86 3.53 6.73 3.53 6.73s-.02 2.715-1.007 2.87C11.873 29.022 0 34.26 0 40h40c0-5.742-11.872-10.98-15.054-11.485z"/></svg><svg width="60" height="60" viewBox="-10 -10 60 60" id="image-contact-information" y="617"><g><g><g fill="#5A595C"><path d="M11.854 24.227c0 .758-.54 1.376-1.212 1.376H6.744c-.67 0-1.223-.618-1.223-1.376 0-.756.552-1.363 1.223-1.363h3.896c.67 0 1.212.606 1.212 1.363zM34.478 26.988v2.5c0 1.417-1.203 2.564-2.663 2.564H11.562c-1.473 0-2.663-1.147-2.663-2.564V27.3h1.74c1.008 0 1.896-.542 2.426-1.352.313-.498.487-1.094.487-1.723 0-1.687-1.3-3.073-2.91-3.073H8.898v-2.467h1.742c1.612 0 2.91-1.386 2.91-3.074s-1.298-3.073-2.91-3.073H8.9v-2.014c0-1.417 1.19-2.575 2.663-2.575h20.25c1.463 0 2.664 1.158 2.664 2.575v16.465zm-1.992-1.852V12.82c0-1.473-.12-2.675-1.538-2.675H18.76c-1.407 0-2.554 1.202-2.554 2.674v11.56c.01 0 .02-.012.043-.012 3.333-.91 5-1.3 5.378-2.382h.174c-.054-.042-.098-.075-.14-.13-1.42-1.276-2.5-3.767-2.5-5.778 0-2.85 2.326-4.72 4.534-4.72 2.196 0 4.416 2.024 4.416 4.87 0 2.014-1.2 4.416-2.674 5.66.293 1.16 1.96 1.54 5.4 2.48.737.205 1.268.456 1.648.768zm-9.84-3.15h.174c-.043-.042-.098-.075-.14-.13l-.034.13zM22.817 21.986h-.172c.012-.042.02-.086.033-.13.044.055.097.088.14.13zM10.642 14.237c.67 0 1.212.616 1.212 1.375 0 .756-.542 1.363-1.212 1.363H6.744c-.672 0-1.223-.607-1.223-1.363 0-.76.55-1.375 1.223-1.375h3.896z"/></g></g></g></svg><svg width="50" height="50" viewBox="-10 -10 50 50" id="image-inbox-message" y="677"><path fill="#D8D8D7" d="M30 14.013c0 7.2-6.72 13.033-15 13.033-1.966 0-3.835-.327-5.558-.926-2.405 1.316-4.544 2.213-7.41 2.775-.856.175-1.197.158-1.27.053-.085-.125.196-.37.445-.57 2.774-2.167 3.237-3.3 3.908-4.57C1.98 21.43 0 17.92 0 14.012 0 6.813 6.712.973 15 .973c8.28 0 15 5.84 15 13.04z"/></svg><svg width="50" height="50" viewBox="-10 -10 50 50" id="image-inbox-message-unread" y="727"><path fill="#5E5F5F" d="M30 14.013c0 7.2-6.72 13.033-15 13.033-1.966 0-3.835-.327-5.558-.926-2.405 1.316-4.544 2.213-7.41 2.775-.856.175-1.197.158-1.27.053-.085-.125.196-.37.445-.57 2.774-2.167 3.237-3.3 3.908-4.57C1.98 21.43 0 17.92 0 14.012 0 6.813 6.712.973 15 .973c8.28 0 15 5.84 15 13.04z"/></svg><svg width="60" height="60" viewBox="-10 -10 60 60" id="image-menu-projects" y="777"><path fill="#fff" d="M31.837 13.208h-.295l-2.592 3.39h.88l-2.542 3.824 1.44.028-2.99 3.872 1.783.028-1.783 3.096h5.276v2.808H28.4l1.335 1.767h4.29l1.306-1.766h-2.915v-2.808h5.227l-1.733-3.042 1.732-.082-2.713-3.9h1.16l-2.568-3.824h.905l-2.59-3.39z"/><path opacity=".5" fill="#5A595C" d="M31.69 14.995l2.686 4.986-1.254.016 2.41 3.703H33.98l1.6 2.805h-7.85l1.655-2.815-1.463.01 2.584-3.736-1.328-.035 2.512-4.935zm.147-1.787h-.295l-2.592 3.39h.88l-2.542 3.825 1.44.028-2.99 3.874 1.784.026-1.785 3.097h5.275v2.808h-2.61l1.333 1.767h4.29l1.306-1.767h-2.915v-2.808h5.227l-1.732-3.042 1.732-.08-2.713-3.902h1.163l-2.57-3.825h.904l-2.59-3.39z"/><path fill="#fff" d="M19.806 9.088L2.36 12.328l.927 5 17.447-3.24-.928-5z"/><g fill="#5A595C"><path d="M19.806 9.088L2.36 12.328l.927 5 17.447-3.24-.928-5zM2.714 12.755l.24-.044c-.055.086-.125.156-.21.21l-.03-.165zm.11.6c.308-.14.534-.414.62-.734l.27-.05c-.082.463-.398.856-.844 1.034l-.045-.25zm.124.666c.668-.23 1.13-.837 1.194-1.53l.128-.023.066.36c-.168.666-.666 1.22-1.344 1.44l-.044-.246zm.123.662c.608-.183 1.1-.59 1.407-1.106l.064.354c-.343.47-.835.83-1.425 1l-.044-.248zm.124.66c.57-.158 1.066-.47 1.447-.88l.058.3c-.398.385-.895.675-1.46.826l-.044-.246zm.12.657c.558-.145 1.056-.41 1.472-.76l.053.282c-.43.332-.927.583-1.478.724L3.315 16zm.123.655c.55-.134 1.05-.37 1.486-.678l.05.268c-.444.298-.944.523-1.49.657l-.046-.247zm1.808-.05l-.803-4.314L19.54 9.487l.803 4.314-15.098 2.805zM6.636 14.12c.064.344-.05.654-.254.693-.203.038-.422-.21-.484-.558-.064-.342.05-.654.252-.692.204-.038.42.21.486.556z"/><ellipse transform="matrix(.983 -.183 .183 .983 -1.885 3.544)" cx="18.224" cy="11.966" rx=".376" ry=".636"/></g><path fill="#5A595C" d="M27.003 7.15c1.334-1.476 1.222-3.75-.254-5.085C25.275.732 23 .848 21.666 2.317c-1.338 1.476-1.225 3.748.25 5.084 1.475 1.34 3.752 1.223 5.086-.25zm.326 21.814l-.01-7.167h-.013l.002-.072-.36-9.687c-.06-1.678-1.475-2.993-3.15-2.93-.887.03-1.662.45-2.2 1.07v-.003l-4.31 5.258-5.615.256-.037 2.347 6.34.45h.018c.46 0 .887-.2 1.18-.554l1.822-2.216.23 6.19-1.21 6.596-.028.36.533 10 2.98-.037.298-9.817.894-4.91-.047.74-.283 4.217.52 9.786 3.033-.305-.588-9.574z"/><path fill="#fff" d="M17.41 35.634c.042 1.262-4.403 1.642-4.53.178-.08-.923.043-2.858 0-3.888-.02-.55 4.53-.794 4.53.082 0 1.343-.032 2.568 0 3.628z"/><path fill="#5A595C" d="M17.937 31.375v4.26c0 .803-1.41 1.226-2.805 1.226-1.393 0-2.805-.422-2.805-1.226v-.545c.133.027.272.04.414.04.044 0 .085 0 .126-.002v.507c0 .232.8.687 2.266.687s2.266-.454 2.266-.687v-3.94c.21-.092.394-.198.54-.32zM12.327 31.373c.014.016.03.03.043.047.096.093.205.178.326.256.055.035.11.068.17.1v3.546c-.012 0-.02.004-.03.004-.03.003-.058.005-.09.005-.1 0-.194-.02-.278-.06l-.008-.005c-.028-.012-.053-.026-.078-.044-.02-.012-.04-.025-.055-.04v-3.807zM15.132 30.247c-1.547 0-2.8.475-2.8 1.06 0 .202.15.39.417.552.493.302 1.374.5 2.382.5s1.89-.198 2.383-.5c.266-.162.417-.35.417-.554 0-.584-1.253-1.06-2.8-1.06zm2.015 1.37c-.39-.18-1.066-.36-2.016-.36-.946 0-1.624.18-2.017.36-.262-.122-.398-.243-.398-.31 0-.176.83-.672 2.416-.672 1.585 0 2.417.496 2.417.67 0 .07-.134.19-.4.313zM13.024 34.92c-.13 0-.258-.015-.377-.044-.12-.03-.238-.075-.35-.137-.36-.197-.594-.493-.69-.878-.23-.934.476-2.205.733-2.638.033.094.055.15.123.205-.27.468-.832 1.565-.633 2.378.08.323.27.56.576.73.047.023.096.046.148.065.145.057.303.086.475.086.042 0 .087-.003.132-.006 1.31-.105 2.853-1.775 3.492-2.54.125-.02.244-.044.357-.07-.683.845-2.38 2.747-3.872 2.84-.037.005-.075.007-.114.007z"/></svg><svg width="60" height="60" viewBox="-10 -10 60 60" id="image-menu-services" y="837"><path fill="#5A595C" d="M29.87 29.697h-.32V2.585h.643v27.112h-.322"/><circle fill="#5A595C" cx="19.568" cy="5.475" r="3.397"/><path fill="#5A595C" d="M28.057 10.728h-10c-1.425 0-2.58 1.155-2.58 2.58V37.92h3.33V26.78h1.604v11.143h3.247v-23.75H29.98c.76 0 1.376-.616 1.376-1.376v-.692c0-.76-.616-1.377-1.377-1.377h-1.923"/><path fill="#5A595C" d="M30.373 35.217v1.072H29.28v-1.073h1.093zm-2.086-2.985c.082-.21.193-.392.34-.543.147-.155.325-.274.53-.36.206-.086.44-.13.69-.13.333 0 .606.047.826.137.222.09.4.203.533.337.136.136.23.28.29.436.057.157.086.302.086.435 0 .225-.03.406-.085.552-.06.143-.13.266-.22.368-.085.103-.18.188-.282.26-.105.072-.206.146-.297.218-.092.07-.176.152-.248.246-.07.093-.115.208-.136.347v.265h-.938v-.313c.014-.2.052-.367.115-.502.063-.133.136-.25.22-.345.083-.095.172-.177.264-.246.094-.07.18-.14.26-.21.077-.07.14-.145.19-.23.05-.082.07-.186.065-.31 0-.215-.054-.372-.157-.474-.104-.103-.25-.154-.435-.154-.126 0-.234.023-.323.073-.092.048-.166.112-.225.194-.06.08-.1.176-.13.284-.025.11-.04.23-.04.354h-1.022c.004-.256.048-.484.13-.692zM9.257 17.597V19.2H7.625v-1.603h1.632zm-3.114-4.46c.12-.312.29-.584.51-.81.218-.23.482-.408.79-.537.31-.13.653-.192 1.034-.192.493 0 .902.068 1.232.202.327.136.594.304.794.505s.345.417.433.648c.086.234.128.45.128.65 0 .334-.042.608-.128.822-.088.215-.194.397-.324.552-.127.152-.27.28-.425.39-.157.106-.305.215-.442.322-.14.106-.26.228-.37.368-.107.14-.174.312-.2.52v.395H7.77v-.468c.02-.297.078-.547.17-.75.096-.2.205-.37.33-.514.123-.14.256-.263.393-.367.14-.104.268-.207.387-.312.117-.103.213-.218.285-.343.074-.124.106-.28.1-.466 0-.32-.078-.556-.233-.708-.157-.152-.373-.228-.65-.228-.188 0-.35.037-.485.108-.135.073-.244.17-.332.292-.086.12-.15.263-.19.425-.042.163-.064.338-.064.524H5.95c.006-.372.07-.715.193-1.027z"/><circle fill="#5A595C" cx="29.871" cy="33.745" r="4.177"/></svg></svg>