<?xml version="1.0" encoding="utf-8"?><!DOCTYPE svg PUBLIC "-//W3C//DTD SVG 1.1//EN" "http://www.w3.org/Graphics/SVG/1.1/DTD/svg11.dtd"><svg width="38.647" height="276" viewBox="0 0 38.647 276" xmlns="http://www.w3.org/2000/svg" xmlns:xlink="http://www.w3.org/1999/xlink"><svg width="16.26" height="13.255" viewBox="0 0 16.26 13.255" id="icon-checkmark-gray"><g fill="#414042"><path opacity=".7" d="M16.166 2.37L13.89.094c-.125-.125-.33-.125-.455 0l-3.8 3.803-4.03 4.03-2.78-2.774c-.126-.127-.33-.127-.456 0L.093 7.428c-.125.125-.125.33 0 .457l2.908 2.907.004.004 2.37 2.365c.126.126.33.126.457 0l3.8-3.8 6.533-6.533c.125-.126.125-.33 0-.457zM3.776 12.565"/></g></svg><svg width="32" height="31.911" viewBox="0 0 32 31.911" id="icon-edit-cog" y="14"><path fill="#006838" d="M13.14 25.913l-.728-.27c.058-.53.04-1.073-.062-1.612l.704-.324c.44-.202.634-.725.43-1.166l-.41-.892c-.202-.44-.725-.634-1.164-.43l-.706.324c-.344-.426-.744-.793-1.186-1.096l.27-.728c.168-.454-.065-.96-.52-1.13l-.923-.34c-.44-.16-.966.08-1.128.52l-.27.73c-.53-.058-1.072-.04-1.612.06l-.324-.703c-.2-.44-.725-.633-1.164-.43l-.893.41c-.44.203-.632.726-.43 1.165l.324.705c-.427.345-.794.745-1.096 1.187l-.727-.27c-.44-.163-.966.08-1.13.52l-.34.922c-.08.22-.07.46.026.672.098.213.273.375.492.455l.73.27c-.058.533-.04 1.076.06 1.614L.66 26.4c-.44.202-.632.725-.43 1.164l.41.893c.204.44.727.633 1.166.43l.704-.324c.345.427.745.793 1.187 1.095l-.27.73c-.08.22-.072.457.026.67.098.213.273.376.493.458l.923.34c.218.08.457.07.67-.026.214-.098.376-.273.456-.494l.27-.73c.532.06 1.074.04 1.613-.06l.323.705c.202.44.726.633 1.165.43l.893-.41c.44-.203.634-.725.432-1.165l-.324-.705c.426-.345.793-.744 1.094-1.186l.73.27c.22.082.458.072.672-.026.212-.1.374-.274.456-.494l.34-.922c.168-.455-.065-.96-.52-1.13zm-4.83 2.294c-.46.213-.947.32-1.45.32-1.353 0-2.592-.794-3.156-2.02-.8-1.74-.037-3.808 1.7-4.608.46-.213.95-.32 1.452-.32 1.352 0 2.59.792 3.156 2.02.8 1.74.038 3.806-1.7 4.607zM21.827 28.427l-.406-.15c.033-.295.023-.598-.032-.897l.392-.18c.245-.113.353-.404.24-.65l-.23-.497c-.113-.246-.404-.354-.648-.24l-.393.18c-.192-.237-.416-.44-.66-.61l.148-.404c.094-.254-.036-.536-.29-.63l-.514-.19c-.244-.09-.537.045-.627.29l-.15.406c-.295-.03-.598-.02-.897.034l-.18-.392c-.114-.245-.405-.353-.65-.24l-.497.23c-.245.112-.352.403-.24.648l.182.392c-.237.192-.442.415-.61.66l-.405-.148c-.244-.092-.537.042-.628.288l-.19.513c-.045.125-.04.257.015.376.055.118.152.208.274.253l.407.15c-.032.294-.02.597.035.897l-.393.18c-.246.114-.354.405-.24.65l.23.497c.11.244.402.352.646.24l.393-.18c.19.236.414.44.66.608l-.15.406c-.046.122-.04.255.015.374.055.118.152.21.274.255l.513.19c.122.044.255.04.374-.015.12-.055.21-.153.253-.275l.15-.406c.297.033.598.023.898-.033l.18.393c.114.244.405.353.65.24l.496-.23c.245-.114.353-.404.24-.65l-.182-.392c.238-.19.442-.414.61-.66l.405.15c.123.045.256.04.375-.015.117-.055.21-.153.254-.275l.19-.513c.094-.252-.036-.535-.29-.628zm-2.69 1.278c-.256.117-.527.177-.808.177-.754 0-1.443-.44-1.758-1.125-.446-.968-.02-2.12.947-2.566.256-.117.527-.176.807-.176.753 0 1.442.442 1.758 1.125.445.968.02 2.118-.947 2.565zM31.035 12.97l-1.226-.453c.096-.894.063-1.806-.105-2.712l1.185-.546c.74-.34 1.063-1.22.723-1.96l-.69-1.5c-.34-.74-1.22-1.066-1.96-.724l-1.185.547c-.58-.718-1.252-1.334-1.993-1.842l.452-1.225c.28-.764-.11-1.615-.873-1.896L23.812.083c-.74-.27-1.622.136-1.896.874l-.452 1.227c-.893-.097-1.806-.064-2.71.103l-.547-1.184c-.34-.74-1.22-1.064-1.96-.724l-1.5.69c-.74.342-1.063 1.222-.725 1.96l.547 1.184c-.717.58-1.335 1.253-1.843 1.995l-1.224-.453c-.738-.275-1.623.133-1.897.873l-.572 1.55c-.137.37-.12.773.043 1.13.167.358.462.63.83.766l1.227.454c-.098.893-.065 1.806.103 2.712l-1.185.545c-.74.34-1.063 1.22-.723 1.958l.69 1.502c.34.738 1.22 1.064 1.96.723l1.183-.545c.58.717 1.253 1.333 1.995 1.84l-.452 1.227c-.138.37-.122.77.043 1.13.164.357.46.63.828.768l1.55.572c.37.136.772.12 1.13-.043.358-.166.63-.46.767-.83l.454-1.227c.893.097 1.804.065 2.71-.102l.546 1.185c.34.74 1.22 1.064 1.96.723l1.5-.69c.74-.342 1.064-1.22.724-1.96l-.547-1.184c.718-.58 1.335-1.252 1.842-1.995l1.226.453c.37.137.773.12 1.132-.045.357-.165.63-.46.766-.83l.573-1.55c.28-.765-.11-1.617-.875-1.898zm-8.12 3.857c-.774.356-1.595.537-2.44.537-2.274 0-4.355-1.333-5.307-3.397-1.347-2.925-.063-6.4 2.86-7.746.773-.356 1.595-.536 2.438-.536 2.273 0 4.357 1.333 5.308 3.396 1.346 2.925.064 6.4-2.86 7.747z"/></svg><svg width="38.647" height="38.899" viewBox="0 0 38.647 38.899" id="icon-edit-pen" y="46"><g fill="#006838"><path d="M11.1 6.492l1.245-1.244c.07-.07.186-.07.257 0l20.983 20.957c.07.07.07.184 0 .255l-1.264 1.263L11.1 6.493zM32.32 27.723L11.1 6.493"/><path d="M5.254 12.33l3.358-3.354 21.22 21.23-3.338 3.335c-.035.036-.083.055-.128.055-.047 0-.094-.02-.13-.054L5.255 12.587c-.034-.034-.054-.08-.054-.128s.02-.094.054-.128zM8.612 8.977l21.22 21.23"/><path d="M30.486 29.555L9.263 8.325l1.182-1.18 21.223 21.228zM1.038 3.367l2.334-2.33C4.04.367 4.932 0 5.88 0c.945 0 1.836.368 2.506 1.037l2.332 2.33c.035.033.055.08.055.128s-.02.094-.055.128l-7.09 7.08c-.033.035-.08.055-.13.055-.048 0-.093-.02-.126-.054l-2.334-2.33C.368 7.705 0 6.817 0 5.872c0-.945.368-1.834 1.038-2.503zM34.95 27.812c.045-.045.108-.064.17-.048.062.015.11.06.13.122l3.39 10.778c.02.065.002.136-.047.183-.035.035-.08.052-.126.052-.02 0-.04-.004-.062-.012l-10.48-3.696c-.058-.02-.103-.07-.116-.13s.004-.125.048-.168l7.092-7.082z"/></g></svg><svg width="18.701" height="18.697" viewBox="0 0 18.701 18.697" id="icon-edit-single-cog" y="85"><path fill="#006838" d="M17.92 10.52l-.995-.368c.078-.725.052-1.464-.084-2.2l.962-.442c.6-.275.86-.99.586-1.59l-.56-1.216c-.277-.6-.99-.865-1.59-.587l-.962.443c-.47-.582-1.015-1.082-1.615-1.494l.367-.994c.228-.62-.09-1.31-.708-1.538L12.06.068c-.6-.22-1.315.11-1.538.71l-.367.994c-.723-.078-1.464-.052-2.198.083l-.442-.96c-.275-.6-.99-.863-1.59-.587l-1.217.56c-.6.277-.862.99-.588 1.59l.443.96c-.58.47-1.082 1.016-1.493 1.618l-.993-.366c-.6-.224-1.316.107-1.54.708L.076 6.635c-.11.3-.1.626.034.916.135.292.373.513.674.623l.993.368c-.08.725-.053 1.465.083 2.2l-.96.443c-.6.277-.862.99-.587 1.588l.56 1.22c.278.6.99.863 1.59.586l.96-.442c.47.582 1.017 1.082 1.62 1.494l-.368.992c-.11.3-.1.625.035.916.133.29.373.51.672.623l1.258.463c.3.11.625.098.916-.035.29-.134.512-.374.62-.673l.37-.995c.725.08 1.463.053 2.2-.083l.44.96c.277.6.99.863 1.59.586l1.217-.56c.6-.277.863-.99.587-1.59l-.443-.96c.582-.47 1.083-1.015 1.493-1.617l.994.368c.3.11.627.097.918-.037.29-.134.51-.374.62-.672l.466-1.258c.227-.62-.09-1.31-.71-1.537zm-6.587 3.127c-.63.29-1.294.436-1.98.436-1.844 0-3.53-1.082-4.303-2.755-1.093-2.373-.052-5.19 2.318-6.282.63-.29 1.295-.436 1.98-.436 1.843 0 3.534 1.08 4.304 2.754 1.09 2.373.05 5.19-2.32 6.283z"/></svg><svg width="22.533" height="13.534" viewBox="0 0 22.533 13.534" id="icon-location" y="104"><path fill="#006838" d="M22.48.2c-.095-.156-.282-.234-.46-.186L9.444 3.444c-.07.02-.132.056-.184.108l-9.143 9.29c-.128.13-.154.332-.06.49.092.16.278.236.458.188l12.575-3.43c.033-.01.066-.023.1-.04.028-.02.058-.04.083-.067l9.144-9.29c.13-.13.153-.333.062-.492zM3.51 11.313l6.125-6.226 2.3 3.928-8.426 2.298z"/></svg><svg width="18.387" height="10.986" viewBox="0 0 18.387 10.986" id="icon-reveal" y="118"><path fill="#006838" d="M18.387 0L9.193 10.986 0 0z"/></svg><svg width="18.387" height="10.986" viewBox="0 0 18.387 10.986" id="icon-reveal-gray" y="129"><path fill="#414042" d="M18.387 0L9.193 10.986 0 0z" opacity=".7"/></svg><svg width="38.457" height="37.082" viewBox="0 0 38.457 37.082" id="icon-user-blank" y="140"><path fill="#006838" d="M23.984 26.04c-.95-.15-.97-2.76-.97-2.76s2.788-2.76 3.397-6.472c1.636 0 2.644-3.945 1.01-5.335C27.487 10.01 29.52 0 19.23 0s-8.26 10.01-8.192 11.473c-1.635 1.39-.625 5.335 1.01 5.335.607 3.712 3.396 6.472 3.396 6.472s-.022 2.61-.97 2.76C11.414 26.526 0 31.562 0 37.082h38.458c0-5.52-11.415-10.556-14.474-11.042z"/></svg><svg width="28.955" height="24.105" viewBox="0 0 28.955 24.105" id="image-contact-information" y="178"><g><g><g fill="#5A595C"><path d="M6.332 16.28c0 .757-.54 1.375-1.212 1.375H1.223C.553 17.655 0 17.037 0 16.28c0-.757.552-1.364 1.223-1.364H5.12c.67 0 1.212.606 1.212 1.363zM28.955 19.04v2.5c0 1.417-1.203 2.564-2.663 2.564H6.04c-1.473 0-2.663-1.147-2.663-2.564v-2.188H5.12c1.006 0 1.894-.542 2.424-1.352.313-.498.487-1.094.487-1.723 0-1.687-1.298-3.073-2.91-3.073H3.377v-2.467H5.12c1.612 0 2.91-1.386 2.91-3.074 0-1.69-1.298-3.074-2.91-3.074H3.377V2.574C3.377 1.158 4.567 0 6.04 0h20.252c1.462 0 2.663 1.158 2.663 2.575V19.04zm-1.99-1.852V4.87c0-1.47-.12-2.673-1.54-2.673H13.238c-1.407 0-2.554 1.202-2.554 2.674v11.56c.01 0 .02-.01.043-.01 3.334-.91 5-1.3 5.38-2.382h.173c-.055-.042-.1-.075-.142-.13-1.418-1.276-2.5-3.767-2.5-5.778 0-2.85 2.327-4.72 4.535-4.72 2.196 0 4.416 2.024 4.416 4.87 0 2.014-1.202 4.416-2.675 5.66.293 1.16 1.96 1.54 5.4 2.48.738.205 1.27.456 1.65.768zm-9.842-3.15h.174c-.043-.042-.098-.075-.14-.13-.01.044-.022.088-.034.13zM17.295 14.038h-.172c.012-.042.02-.086.033-.13.043.055.097.088.14.13zM5.12 6.29c.67 0 1.21.615 1.21 1.374 0 .756-.54 1.363-1.21 1.363H1.222C.55 9.027 0 8.42 0 7.665c0-.76.55-1.375 1.223-1.375H5.12z"/></g></g></g></svg><svg width="35.283" height="37.728" viewBox="0 0 35.283 37.728" id="image-menu-projects" y="203"><path fill="#fff" d="M29.48 12.072h-.296l-2.592 3.388h.88l-2.542 3.826 1.44.027-2.99 3.873 1.782.027-1.783 3.097h5.274v2.808h-2.61l1.333 1.767h4.29l1.306-1.767h-2.916V26.31h5.226l-1.732-3.042 1.733-.082-2.713-3.9h1.162l-2.568-3.825h.904l-2.59-3.388z"/><path opacity=".5" fill="#5A595C" d="M29.332 13.86l2.686 4.985-1.254.015 2.41 3.703H31.62l1.603 2.806H25.37l1.657-2.816-1.463.01 2.584-3.736-1.328-.035 2.512-4.934zm.147-1.788h-.296l-2.592 3.39h.88l-2.542 3.825 1.44.028-2.99 3.873 1.784.026-1.785 3.097h5.274v2.81h-2.61l1.333 1.766h4.29l1.306-1.767h-2.916v-2.81h5.227l-1.732-3.042 1.732-.08-2.713-3.902h1.165l-2.57-3.825h.904l-2.59-3.388z"/><path fill="#fff" d="M17.447 7.952L0 11.192l.928 5 17.447-3.24-.928-5z"/><g fill="#5A595C"><path d="M17.447 7.952L0 11.192l.928 5 17.447-3.24-.928-5zM.355 11.62l.24-.045c-.055.085-.125.155-.21.21l-.03-.166zm.112.597c.307-.14.533-.413.62-.733l.27-.05c-.083.462-.4.855-.845 1.033l-.045-.25zm.123.668c.668-.232 1.13-.838 1.194-1.53l.128-.024.066.362c-.168.665-.666 1.22-1.344 1.44l-.044-.247zm.123.66c.607-.183 1.1-.59 1.406-1.106l.063.353c-.344.47-.836.83-1.426 1l-.044-.248zm.123.66c.57-.157 1.066-.47 1.447-.88l.057.3c-.398.386-.895.676-1.46.827l-.044-.246zm.12.657c.558-.144 1.056-.408 1.472-.758l.053.28c-.427.333-.925.584-1.476.725l-.047-.248zm.122.657c.55-.135 1.05-.37 1.486-.68l.05.27c-.444.297-.944.522-1.49.656l-.046-.247zm1.81-.05l-.804-4.315L17.182 8.35l.803 4.314L2.887 15.47zM4.277 12.983c.064.345-.05.655-.254.694-.203.038-.422-.21-.484-.558-.065-.343.048-.655.25-.693.206-.038.423.21.487.556z"/><ellipse transform="matrix(.983 -.183 .183 .983 -1.717 3.092)" cx="15.865" cy="10.83" rx=".376" ry=".636"/></g><path fill="#5A595C" d="M24.645 6.013C25.98 4.538 25.867 2.265 24.39.93c-1.472-1.334-3.747-1.218-5.08.25-1.34 1.477-1.226 3.75.25 5.085 1.473 1.34 3.75 1.222 5.085-.252zm.326 21.815l-.01-7.167h-.01v-.07l-.358-9.688c-.06-1.678-1.475-2.993-3.15-2.93-.887.03-1.662.45-2.2 1.07h-.002V9.04l-4.31 5.26-5.614.255-.037 2.348 6.34.45h.017c.46 0 .887-.2 1.18-.554l1.822-2.217.23 6.19-1.21 6.596-.03.36.534 9.998 2.98-.036.298-9.817.893-4.908-.047.74-.283 4.216.52 9.786 3.033-.306-.587-9.576z"/><path fill="#fff" d="M15.053 34.498c.04 1.262-4.404 1.642-4.53.178-.08-.923.042-2.858 0-3.888-.022-.55 4.53-.794 4.53.082 0 1.342-.033 2.568 0 3.628z"/><path fill="#5A595C" d="M15.578 30.238v4.26c0 .803-1.41 1.226-2.805 1.226-1.393 0-2.805-.423-2.805-1.227v-.545c.133.028.272.042.414.042.043 0 .084 0 .125-.003v.508c0 .232.8.687 2.266.687s2.266-.454 2.266-.687v-3.94c.21-.092.394-.197.538-.32zM9.97 30.237l.042.047c.096.093.205.178.326.256.055.035.11.068.17.1v3.546c-.012 0-.02.004-.03.004-.03.003-.058.005-.09.005-.1 0-.194-.02-.278-.062l-.008-.004c-.028-.013-.053-.027-.078-.045-.02-.013-.04-.026-.055-.042v-3.806zM12.773 29.11c-1.547 0-2.8.476-2.8 1.06 0 .203.15.392.417.553.494.303 1.375.5 2.383.5s1.89-.197 2.383-.5c.266-.16.417-.35.417-.553 0-.584-1.253-1.06-2.8-1.06zm2.016 1.372c-.39-.182-1.067-.36-2.017-.36-.947 0-1.625.18-2.018.36-.262-.123-.398-.244-.398-.312 0-.175.83-.67 2.416-.67 1.584 0 2.416.495 2.416.67 0 .068-.135.19-.4.312zM10.666 33.785c-.13 0-.258-.016-.377-.045-.122-.03-.24-.075-.35-.137-.362-.196-.595-.492-.69-.877-.232-.934.475-2.205.732-2.638.033.094.055.15.123.205-.27.47-.832 1.566-.633 2.38.08.322.27.56.576.728.047.025.096.048.148.067.145.057.303.086.475.086.044 0 .09-.002.134-.005 1.31-.105 2.853-1.775 3.492-2.54.125-.02.244-.044.357-.07-.684.845-2.38 2.747-3.873 2.84-.038.005-.075.007-.114.007z"/></svg><svg width="26.925" height="34.35" viewBox="0 0 26.925 34.35" id="image-menu-services" y="241"><path fill="#5A595C" d="M22.922 26.467h-.31V.487h.618v25.98h-.308"/><circle fill="#5A595C" cx="13.049" cy="3.255" r="3.255"/><path fill="#5A595C" d="M21.184 8.29H11.6c-1.364 0-2.47 1.106-2.47 2.47v23.59h3.19V23.67h1.535v10.68h3.11V11.592H23.026c.73 0 1.318-.59 1.318-1.32V9.61c0-.73-.59-1.32-1.318-1.32H21.184"/><path fill="#5A595C" d="M23.402 31.757v1.027h-1.048v-1.027h1.048zm-1.998-2.86c.078-.202.186-.376.326-.52.14-.15.31-.263.508-.344.197-.083.42-.125.662-.125.318 0 .58.044.79.13.213.087.384.194.512.323.13.13.22.27.278.418.054.15.082.29.082.417 0 .214-.028.39-.082.528-.058.137-.125.254-.21.353-.08.098-.17.18-.27.25-.102.068-.197.138-.284.207-.09.068-.17.146-.238.236-.068.088-.11.2-.13.332v.254h-.9v-.3c.014-.19.05-.35.11-.48.062-.128.13-.24.21-.33.08-.092.166-.17.253-.237.092-.068.174-.134.25-.2.074-.068.136-.142.182-.222.048-.08.068-.18.064-.3 0-.204-.05-.355-.15-.452-.1-.1-.24-.147-.416-.147-.12 0-.225.022-.31.07-.09.045-.16.107-.216.186-.056.077-.096.168-.123.272-.024.105-.038.218-.038.337h-.98c.002-.24.044-.46.122-.66zM3.168 14.873v1.535H1.604v-1.535h1.564zM.184 10.598c.116-.3.28-.56.487-.777.21-.22.464-.39.758-.512.297-.123.627-.185.992-.185.473 0 .865.066 1.18.194.316.13.57.29.764.483.19.193.33.4.414.622.08.225.122.432.122.623 0 .32-.04.583-.123.79-.084.205-.187.38-.31.527-.123.146-.26.27-.408.372-.15.103-.293.207-.425.31-.134.104-.25.22-.354.355-.103.132-.166.297-.192.496v.38H1.742v-.45c.02-.284.075-.524.164-.717.09-.193.195-.357.314-.494.12-.136.246-.253.377-.353.135-.1.257-.198.37-.3.113-.1.205-.21.274-.33.07-.12.103-.267.096-.446 0-.306-.075-.533-.224-.68-.15-.145-.357-.217-.623-.217-.18 0-.335.035-.466.104-.13.07-.234.163-.318.28-.082.115-.145.25-.184.407-.04.158-.06.325-.06.504H0c.005-.358.067-.687.184-.986z"/><circle fill="#5A595C" cx="22.922" cy="30.346" r="4.003"/></svg></svg>