<?xml version="1.0" encoding="utf-8"?>
<!-- Generator: Adobe Illustrator 16.0.4, SVG Export Plug-In . SVG Version: 6.00 Build 0)  -->
<!DOCTYPE svg PUBLIC "-//W3C//DTD SVG 1.1//EN" "http://www.w3.org/Graphics/SVG/1.1/DTD/svg11.dtd">
<svg version="1.1" id="Layer_1" xmlns="http://www.w3.org/2000/svg" xmlns:xlink="http://www.w3.org/1999/xlink" x="0px" y="0px"
	 width="38.457px" height="37.082px" viewBox="0 0 38.457 37.082" enable-background="new 0 0 38.457 37.082" xml:space="preserve">
<path fill="#006838" d="M23.984,26.04c-0.949-0.15-0.969-2.76-0.969-2.76s2.787-2.76,3.396-6.472c1.635,0,2.643-3.945,1.008-5.335
	C27.488,10.011,29.521,0,19.229,0s-8.26,10.011-8.191,11.473c-1.635,1.39-0.625,5.335,1.01,5.335
	c0.607,3.712,3.396,6.472,3.396,6.472s-0.022,2.61-0.97,2.76C11.415,26.526,0,31.562,0,37.082h19.229h19.229
	C38.457,31.562,27.043,26.526,23.984,26.04z"/>
</svg>
