<?xml version="1.0" encoding="utf-8"?>
<!-- Generator: Adobe Illustrator 16.0.4, SVG Export Plug-In . SVG Version: 6.00 Build 0)  -->
<!DOCTYPE svg PUBLIC "-//W3C//DTD SVG 1.1//EN" "http://www.w3.org/Graphics/SVG/1.1/DTD/svg11.dtd">
<svg version="1.1" id="Layer_1" xmlns="http://www.w3.org/2000/svg" xmlns:xlink="http://www.w3.org/1999/xlink" x="0px" y="0px"
	 width="1180px" height="70px" viewBox="0 0 1180 70" enable-background="new 0 0 1180 70" xml:space="preserve">
<g>
	<g>
		<g>
			<path fill="#59585B" d="M280.293-86.343c-1.119,0.549-1.895,1.686-1.904,3.016l-0.002,0.003c0,0.006,0,0.013,0,0.019v32.399
				h4.273h0.107V-65.57h2.003v14.665h0.107h4.273c0,0,0-24.565,0-32.399c0-0.006,0-0.013,0-0.019l-0.002-0.003
				c-0.009-1.33-0.785-2.466-1.904-3.016l-0.027-0.043h-6.897L280.293-86.343z"/>
		</g>
		<path fill="#59585B" d="M283.768-98.085c2.47,0,4.472,2.001,4.472,4.47c0,2.47-2.002,4.471-4.472,4.471
			c-2.467,0-4.469-2.001-4.469-4.471C279.299-96.084,281.301-98.085,283.768-98.085z"/>
	</g>
</g>
<g>
	<g>
		<path fill="#569E64" d="M372.846-181.277c2.47,0,4.472-2.001,4.472-4.471c0-2.469-2.002-4.47-4.472-4.47
			c-2.467,0-4.469,2.001-4.469,4.47C368.377-183.278,370.379-181.277,372.846-181.277z"/>
		<path fill="#569E64" d="M386.461-185.323l-0.66-0.66c-0.723-0.723-1.896-0.725-2.621,0l-7.465,7.465h-6.311l-7.466-7.465
			c-0.726-0.725-1.898-0.723-2.622,0l-0.66,0.66c-0.723,0.723-0.723,1.894,0.003,2.619l8.806,8.805v30.861h4.273h0.107v-14.665
			h2.003v14.665h0.107h4.273c0,0,0-22.741,0-31.438l8.229-8.229C387.184-183.429,387.184-184.601,386.461-185.323z"/>
	</g>
	<g>
		<rect x="322.442" y="-177.089" fill="#70C383" width="38" height="2"/>
		<rect x="346.45" y="-155.619" fill="#70C383" width="17.001" height="2"/>
		<rect x="346.143" y="-171.408" fill="#70C383" width="17.001" height="2"/>
		<rect x="352.716" y="-149.176" fill="#70C383" width="10.735" height="2"/>
	</g>
</g>
<g>
	<g>
		<g>
			<path fill="#569E64" d="M116.27-141.777v32.383h9.281v-32.383H116.27z M117.154-109.888v-0.447
				c0.135,0.126,0.238,0.276,0.309,0.447H117.154z M118.264-109.888c-0.148-0.599-0.562-1.097-1.107-1.357v-0.498
				c0.8,0.3,1.402,1,1.573,1.855H118.264z M119.502-109.888c-0.191-1.275-1.125-2.31-2.346-2.654v-0.236h0.671
				c1.137,0.523,1.966,1.604,2.136,2.891H119.502L119.502-109.888z M120.73-109.888c-0.127-1.151-0.69-2.17-1.518-2.893h0.656
				c0.728,0.773,1.209,1.779,1.32,2.893H120.73z M121.955-109.888c-0.094-1.079-0.486-2.072-1.098-2.893h0.557
				c0.559,0.843,0.914,1.828,0.998,2.893H121.955z M123.174-109.888c-0.073-1.048-0.38-2.026-0.869-2.893h0.521
				c0.453,0.877,0.736,1.856,0.807,2.893H123.174z M124.393-109.888c-0.061-1.026-0.312-2.004-0.721-2.893h0.498
				c0.386,0.897,0.623,1.87,0.682,2.893H124.393z M124.904-113.148h-8.008v-28.021h8.008V-113.148z"/>
			<circle fill="#569E64" cx="133.729" cy="-149.081" r="4.476"/>
			<path fill="#569E64" d="M149.262-140.344v0.914c0,0.917-0.684,1.679-1.572,1.795v3.302c0.336,0.093,0.582,0.4,0.582,0.768
				c0,0.364-0.246,0.672-0.582,0.764c-0.066,0.021-0.14,0.032-0.213,0.032h-1.778c-0.05,0-0.099-0.005-0.147-0.013
				c-0.16-0.03-0.304-0.107-0.418-0.22c-0.145-0.143-0.233-0.343-0.233-0.563c0-0.389,0.279-0.711,0.651-0.783v-3.269h-6.434v31.296
				h-4.279v-14.685h-2.111v14.685h-4.387v-32.438c0-1.877,1.521-3.398,3.396-3.398h13.814v-3.046h2.139v3.063
				C148.578-142.025,149.262-141.264,149.262-140.344z"/>
			<path fill="#569E64" d="M151.957-148.988v2.874h-2.135c-0.059-0.42-0.419-0.743-0.855-0.743c-0.476,0-0.865,0.387-0.865,0.865
				c0,0-0.041,0.375-0.428,0.375h-2.423c0,0,0.089-1.322-1.09-1.322c0,0-0.461,0-0.886,0c-1.826,0-2.17,2.453-2.17,2.453h-1.07
				c0,0,0-2.307,2.055-3.718c1.4-0.959,2.897-1.163,3.25-1.183c0.053-0.006,0.076-0.006,0.076-0.006h2.111
				c0.43,0,0.671,0.115,0.671,0.404c0,0.096,0.018,0.188,0.052,0.272c0.062,0.166,0.18,0.306,0.332,0.396
				c0.112,0.064,0.244,0.102,0.385,0.102c0.291,0,0.545-0.164,0.677-0.402c0.015-0.031,0.031-0.062,0.041-0.095
				c0.033-0.085,0.051-0.177,0.051-0.272H151.957L151.957-148.988z"/>
			<ellipse fill="#569E64" cx="120.908" cy="-115.786" rx="1.16" ry="0.686"/>
			<ellipse fill="#569E64" cx="120.908" cy="-137.979" rx="1.16" ry="0.685"/>
		</g>
	</g>
	<g>
		<rect x="84.068" y="-153.557" fill="#70C383" width="38" height="2"/>
		<rect x="94.568" y="-122.543" fill="#70C383" width="17.001" height="2"/>
		<rect x="107.769" y="-147.876" fill="#70C383" width="17.001" height="2"/>
		<rect x="100.834" y="-116.1" fill="#70C383" width="10.735" height="2"/>
	</g>
</g>
<g>
	<g>
		<g>
			<circle fill="#569E64" cx="134.002" cy="-84.571" r="4.574"/>
			<path fill="#569E64" d="M148.02-72.858c1.025,0,1.854-0.828,1.854-1.851v-0.934c0-1.022-0.828-1.854-1.854-1.854h-1.422v-0.975
				c1.645-0.534,1.814-3.279,1.814-3.279v-1.139h-4.924v1.139c0,0,0.275,2.75,1.943,3.281v0.973h-13.465
				c-1.918,0-3.474,1.556-3.474,3.473v33.146h4.484v-15.006h2.158v15.006h4.372v-31.98h5.924v21.3
				c-0.365,0.208-0.881,0.441-1.477,0.544c-1.193,0.206-1.451,0-1.451,0s0,2.591,0,5.546c0,2.954,3.511,4.591,3.511,4.591
				s3.511-1.637,3.511-4.591c0-2.955,0-5.546,0-5.546s-0.258,0.206-1.449,0c-0.599-0.103-1.114-0.336-1.479-0.544v-21.301H148.02z
				 M144.486-81.75h2.991c0,0-0.165,2.314-1.528,2.314C144.585-79.436,144.486-81.75,144.486-81.75z"/>
			<path fill="#569E64" d="M120.101-72.043l3.128,5.808l-1.461,0.018l2.807,4.313h-1.807l1.866,3.27h-9.147l1.93-3.279l-1.704,0.01
				l3.011-4.352l-1.549-0.041L120.101-72.043z M120.271-74.125h-0.344l-3.02,3.947h1.025l-2.961,4.457l1.676,0.031l-3.482,4.512
				l2.078,0.031l-2.078,3.606h6.145v3.271h-3.041l1.553,2.059h4.998l1.521-2.059h-3.396v-3.271h6.088l-2.02-3.544l2.02-0.094
				l-3.16-4.543h1.354l-2.993-4.456h1.055L120.271-74.125L120.271-74.125z"/>
		</g>
	</g>
	<g>
		<rect x="82.666" y="-89.145" fill="#70C383" width="38" height="2"/>
		<rect x="93.165" y="-58.13" fill="#70C383" width="17.001" height="2"/>
		<rect x="106.366" y="-83.463" fill="#70C383" width="17.001" height="2"/>
		<rect x="99.431" y="-51.688" fill="#70C383" width="10.735" height="2"/>
	</g>
</g>
<g>
	<g>
		<g>
			<polyline fill="#569E64" points="239.074,-106.412 238.64,-106.412 238.64,-142.917 239.508,-142.917 239.508,-106.412 
				239.074,-106.412 			"/>
			<polygon fill="#569E64" points="244.519,-98.435 245.503,-98.435 243.81,-101.605 239.143,-101.605 239.005,-101.605 
				234.335,-101.605 232.643,-98.435 233.627,-98.435 233.548,-98.178 234.591,-98.178 234.554,-98.001 238.709,-98.001 
				239.437,-98.001 243.594,-98.001 243.553,-98.178 244.598,-98.178 			"/>
			<path fill="#569E64" d="M239.074-101.842h-5.081c0,0,0.315-0.965,1.478-1.182c1.16-0.217,2.501-0.649,2.855-1.536
				c0.354-0.887,0.275-1.359,0.275-1.359h0.473h0.472c0,0-0.078,0.473,0.276,1.359c0.354,0.887,1.693,1.319,2.856,1.536
				c1.161,0.217,1.478,1.182,1.478,1.182H239.074z"/>
			<circle fill="#569E64" cx="225.201" cy="-141.602" r="4.574"/>
			<path fill="#569E64" d="M236.63-134.527h-13.465c-1.917,0-3.473,1.555-3.473,3.472v33.146h4.483v-15.004h2.157v15.004h4.373
				v-31.979h5.924l0,0c0.07,0,0.884-0.001,1.166-0.001l0,0h1.424c1.022,0,1.853-0.829,1.853-1.852v-0.933
				c0-1.023-0.83-1.854-1.853-1.854h-1.424l0,0C237.408-134.527,237.019-134.527,236.63-134.527L236.63-134.527"/>
			<g id="basket_1_">
				<path fill="#569E64" d="M211.194-130.544c-3.595,0-6.517,2.738-6.517,6.111c0,0.615,0.109,1.213,0.299,1.785l-0.014,0.004
					l1.451,8.201c0.019,1.361,2.369,1.98,4.555,1.98c2.146,0,4.45-0.597,4.553-1.906l1.889-8.25l0,0
					c0.003-0.019,0.007-0.035,0.011-0.052l0.009-0.025c0.179-0.55,0.27-1.135,0.27-1.738
					C217.7-127.806,214.781-130.544,211.194-130.544z M211.194-129.417c2.947,0,5.341,2.209,5.374,4.932
					c-1.166-0.867-3.307-1.325-5.365-1.325c-2.074,0-4.236,0.465-5.395,1.349C205.825-127.196,208.235-129.417,211.194-129.417z
					 M206.08-122.979c0-0.695,1.995-1.704,5.123-1.704c3.127,0,5.125,1.009,5.125,1.704c0,0.692-1.998,1.701-5.125,1.701
					C208.075-121.278,206.08-122.288,206.08-122.979z M214.445-114.728l-0.047,0.264c-0.066,0.24-1.217,0.875-3.43,0.875
					c-2.077,0-3.221-0.562-3.405-0.821l-1.165-6.575l0.107-0.088c1.218,0.606,2.986,0.922,4.697,0.922
					c1.702,0,3.459-0.312,4.678-0.912l0.012,0.009L214.445-114.728z"/>
			</g>
		</g>
	</g>
	<g>
		<rect x="173.755" y="-147.176" fill="#70C383" width="38" height="2"/>
		<rect x="184.255" y="-116.162" fill="#70C383" width="17.001" height="2"/>
		<rect x="197.456" y="-141.495" fill="#70C383" width="17.001" height="2"/>
		<rect x="190.521" y="-109.719" fill="#70C383" width="10.735" height="2"/>
	</g>
</g>
<g>
	<g>
		<g>
			<path fill="#569E64" d="M243.652-67.808h-1.46v-3.371c1.467-0.447,2.531-1.809,2.531-3.418c0-1.26-0.652-2.367-1.637-3.005v2.781
				c0,0.494-0.4,0.893-0.895,0.893h-2.086c-0.492,0-0.893-0.398-0.893-0.893v-2.781c-0.984,0.638-1.638,1.745-1.638,3.005
				c0,1.609,1.067,2.971,2.53,3.418v3.371h-12.483c-1.915,0-3.468,1.554-3.468,3.468v33.095h4.477v-14.982h2.154v14.981h4.367
				v-31.931h4.955v4.027c-1.13,0.422-1.934,1.511-1.934,2.789c0,1.646,1.333,2.978,2.979,2.978c1.642,0,2.975-1.332,2.975-2.978
				c0-1.278-0.804-2.367-1.936-2.789v-4.027h1.46c1.021,0,1.849-0.827,1.849-1.85v-0.931
				C245.5-66.979,244.673-67.808,243.652-67.808z M242.639-56.361c0,0.822-0.666,1.488-1.486,1.488
				c-0.825,0-1.492-0.666-1.492-1.488c0-0.824,0.667-1.488,1.492-1.488C241.973-57.849,242.639-57.184,242.639-56.361z"/>
			<circle fill="#569E64" cx="229.653" cy="-74.872" r="4.568"/>
			<path fill="#569E64" d="M217.875-49.785c-2.464,0-4.469-2.004-4.469-4.468c0-0.521,0.089-1.03,0.264-1.517l0.02-0.045
				l0.107-0.268l4.08-9.967l0.678,1.661l3.525,8.618c0.178,0.486,0.266,0.996,0.266,1.517
				C222.346-51.789,220.342-49.785,217.875-49.785z M214.687-55.38c-0.128,0.362-0.193,0.74-0.193,1.128
				c0,1.864,1.517,3.383,3.382,3.383s3.384-1.519,3.384-3.383c0-0.388-0.063-0.768-0.194-1.129l-0.117-0.291l-3.072-7.505
				L214.687-55.38z"/>
		</g>
	</g>
	<g>
		<rect x="178.01" y="-81.016" fill="#70C383" width="38" height="2"/>
		<rect x="188.51" y="-50.001" fill="#70C383" width="17.001" height="2"/>
		<rect x="201.711" y="-75.334" fill="#70C383" width="17.001" height="2"/>
		<rect x="194.776" y="-43.559" fill="#70C383" width="10.735" height="2"/>
	</g>
</g>
<g>
	<g>
		<g>
			<path fill="#569E64" d="M273.828-191.749c0,2.496-2.022,4.519-4.519,4.519s-4.52-2.022-4.52-4.519
				c0-0.276,0.025-0.549,0.074-0.812h8.89C273.803-192.297,273.828-192.025,273.828-191.749z"/>
			<path fill="#569E64" d="M282.366-185.609v0.85h0.793c1.012,0,1.831,0.74,1.831,1.65v0.833c0,0.91-0.819,1.649-1.831,1.649h-0.793
				v1.006c0.033,0.031,0.077,0.076,0.116,0.124c0.031,0.042,0.059,0.085,0.076,0.128c0.074,0.162,0.073,0.333,0,0.508
				c-0.032,0.074-0.027,0.12-0.015,0.188l0.003,0.023c0.108,0.678,0.147,1.139,0.157,1.406c0.027,0.647-0.053,1.223-0.085,1.36
				c-0.013,0.058-0.064,0.254-0.162,0.397c-0.025,0.039-0.052,0.069-0.081,0.094c-0.096,0.088-0.223,0.144-0.361,0.155
				c-0.02,0.003-0.17,0.001-0.191-0.001c-0.137-0.02-0.262-0.077-0.354-0.167c-0.03-0.027-0.056-0.06-0.078-0.097
				c-0.093-0.146-0.136-0.344-0.149-0.401c-0.027-0.139-0.09-0.718-0.045-1.361c0.021-0.269,0.07-0.728,0.201-1.401l0.003-0.023
				c0.015-0.066,0.021-0.113-0.009-0.188c-0.07-0.178-0.062-0.349,0.016-0.509c0.021-0.043,0.048-0.083,0.08-0.123
				c0.029-0.037,0.072-0.078,0.108-0.111v-1.006h-6.846v32.044h-4.32v-14.824h-2.132v14.824h-4.428v-32.745
				c0-1.895,1.535-3.432,3.43-3.432h14.298v-1.227l0.302-0.23l6.431-4.924v-1.036h-1.766v1.031h-8.527v-2.831h8.527v1.031h2.532
				v2.184L282.366-185.609z"/>
			<path fill="#569E64" d="M261.169-177.564v8.493c0,1.603-2.812,2.443-5.593,2.443c-2.779,0-5.594-0.841-5.594-2.443v-1.087
				c0.266,0.054,0.544,0.082,0.826,0.082c0.084,0,0.169-0.003,0.249-0.008v1.013c0,0.463,1.595,1.368,4.519,1.368
				c2.922,0,4.516-0.905,4.516-1.368v-7.855C260.512-177.108,260.877-177.321,261.169-177.564z"/>
			<path fill="#569E64" d="M249.983-177.566c0.027,0.023,0.059,0.048,0.087,0.072c0.19,0.148,0.409,0.283,0.649,0.407
				c0.108,0.057,0.222,0.108,0.339,0.16v5.633c-0.022,0.003-0.042,0.007-0.062,0.007c-0.059,0.006-0.114,0.007-0.173,0.007
				c-0.205,0-0.391-0.032-0.56-0.099l-0.015-0.007c-0.055-0.02-0.105-0.042-0.155-0.07c-0.038-0.021-0.078-0.043-0.11-0.066v-5.829
				V-177.566z"/>
			<path fill="#569E64" d="M250.809-170.494c-0.262,0-0.514-0.03-0.751-0.09c-0.241-0.061-0.475-0.15-0.698-0.271
				c-0.722-0.393-1.185-0.98-1.375-1.75c-0.461-1.861,0.846-4.312,1.361-5.178c0.094,0.123,0.203,0.241,0.326,0.354
				c-0.543,0.934-1.642,3.096-1.242,4.716c0.16,0.645,0.536,1.119,1.149,1.452c0.09,0.05,0.19,0.096,0.296,0.136
				c0.288,0.111,0.604,0.17,0.943,0.17l0,0c0.086,0,0.176-0.004,0.265-0.011c2.61-0.208,5.69-3.538,6.968-5.061
				c0.245-0.043,0.482-0.091,0.711-0.146c-1.365,1.688-4.748,5.479-7.724,5.668C250.961-170.497,250.887-170.494,250.809-170.494z"
				/>
			<path fill="#569E64" d="M276.296-194.039v0.625l-11.331,0.012v-2.8c0-0.34,0.275-0.616,0.614-0.616h7.633
				c0.341,0,0.615,0.276,0.615,0.616v2.164L276.296-194.039L276.296-194.039z"/>
			<path fill="#569E64" d="M255.577-181.11c-3.083,0-5.583,0.946-5.583,2.109c0,0.405,0.302,0.78,0.831,1.103
				c0.984,0.604,2.742,1,4.752,1s3.766-0.396,4.75-1c0.529-0.322,0.832-0.697,0.832-1.103
				C261.159-180.164,258.66-181.11,255.577-181.11z M259.595-178.377c-0.776-0.361-2.129-0.718-4.019-0.718
				c-1.891,0-3.242,0.356-4.023,0.718c-0.524-0.243-0.793-0.485-0.793-0.623c0-0.348,1.654-1.337,4.816-1.337
				c3.157,0,4.814,0.989,4.814,1.337C260.391-178.863,260.125-178.621,259.595-178.377z"/>
		</g>
	</g>
	<g>
		<rect x="218.712" y="-197.818" fill="#70C383" width="38" height="2"/>
		<rect x="229.211" y="-166.804" fill="#70C383" width="17.001" height="2"/>
		<rect x="242.413" y="-192.137" fill="#70C383" width="17.001" height="2"/>
		<rect x="235.478" y="-160.361" fill="#70C383" width="10.735" height="2"/>
	</g>
</g>
<g>
	<g>
		<g>
			<path fill="#569E64" d="M380.826-80.078v1.062H378.1c-3.537,0-4.546-3.157-4.585-4.826v-26.662h-4.636v31.26h-4.273v-14.665
				h-2.11v14.665h-4.381v-32.399c0-1.875,1.518-3.395,3.393-3.395h12.008v-3.572c-0.204-0.18-0.37-0.397-0.441-0.496l-0.612-0.854
				c-0.292-0.402-0.519-1.104-0.519-1.6v-0.22c0-0.533,0.368-0.982,0.862-1.104v-2.796h0.761v2.761h1.062v-2.761h0.761v2.828
				c0.443,0.153,0.76,0.576,0.76,1.072v0.22c0,0.493-0.218,1.194-0.495,1.603l-0.571,0.835c-0.077,0.112-0.27,0.377-0.503,0.569
				v3.516h2.622c0.999,0,1.81,0.812,1.81,1.812v0.911c0,1.001-0.811,1.812-1.81,1.812h-2.622v26.65
				c0.002,0.14,0.144,3.774,3.52,3.774H380.826L380.826-80.078z"/>
			<path fill="#569E64" d="M363.496-126.424c2.47,0,4.472,2.001,4.472,4.47c0,2.47-2.002,4.471-4.472,4.471
				c-2.467,0-4.469-2.001-4.469-4.471C359.027-124.423,361.029-126.424,363.496-126.424z"/>
			<path fill="#569E64" d="M350.152-87.614l-1.037-0.225l0.854-7.105H347.5l1.385-5.545h-3.091l2.826-10.526h6.33l-2.079,5.689h2.08
				l-2.232,6.085h1.119L350.152-87.614z M348.863-96.008h2.307l-0.322,2.678l1.536-4.849h-1.19l2.232-6.084h-2.077l2.077-5.688
				h-3.988l-2.257,8.396h3.067L348.863-96.008z"/>
		</g>
	</g>
	<g>
		<rect x="312.713" y="-127.93" fill="#70C383" width="38" height="2"/>
		<rect x="323.212" y="-96.916" fill="#70C383" width="17.001" height="2"/>
		<rect x="336.414" y="-122.249" fill="#70C383" width="17.001" height="2"/>
		<rect x="329.479" y="-90.473" fill="#70C383" width="10.735" height="2"/>
	</g>
</g>
<g>
	<path fill="#569E64" d="M468.179-184.058c2.47,0,4.472-2.001,4.472-4.471c0-2.469-2.002-4.47-4.472-4.47
		c-2.467,0-4.469,2.001-4.469,4.47C463.71-186.059,465.712-184.058,468.179-184.058z"/>
	<path fill="#569E64" d="M481.794-188.104l-0.66-0.66c-0.723-0.723-1.896-0.725-2.621,0l-7.465,7.465h-6.311l-7.466-7.465
		c-0.726-0.725-1.898-0.723-2.622,0l-0.66,0.66c-0.723,0.723-0.723,1.894,0.003,2.619l8.806,8.805v30.861h4.273h0.107v-14.665h2.003
		v14.665h0.107h4.273c0,0,0-22.741,0-31.438l8.229-8.229C482.517-186.21,482.517-187.381,481.794-188.104z"/>
</g>
<g>
	<rect x="417.776" y="-179.87" fill="#70C383" width="38" height="2"/>
	<rect x="441.784" y="-158.399" fill="#70C383" width="17.001" height="2"/>
	<rect x="441.477" y="-174.189" fill="#70C383" width="17.001" height="2"/>
	<rect x="448.05" y="-151.957" fill="#70C383" width="10.735" height="2"/>
</g>
<g>
	<rect x="440.132" y="-130.744" fill="#70C383" width="38" height="2"/>
	<rect x="450.632" y="-99.73" fill="#70C383" width="17.001" height="2"/>
	<rect x="463.833" y="-125.063" fill="#70C383" width="17.001" height="2"/>
	<rect x="456.898" y="-93.287" fill="#70C383" width="10.735" height="2"/>
</g>
<rect x="398.333" y="-226.333" fill="#70C383" width="7.333" height="201.667"/>
<g>
	<path fill="#4F97D2" d="M601.918,22.377v32.381h9.281V22.377H601.918z M602.803,54.264v-0.447c0.135,0.127,0.238,0.277,0.309,0.447
		H602.803z M603.912,54.264c-0.148-0.598-0.562-1.096-1.107-1.357v-0.498c0.8,0.301,1.402,1,1.573,1.855H603.912z M605.15,54.264
		c-0.191-1.275-1.125-2.309-2.346-2.654v-0.236h0.671c1.137,0.523,1.966,1.604,2.136,2.891H605.15L605.15,54.264z M606.379,54.264
		c-0.127-1.15-0.69-2.17-1.518-2.893h0.656c0.728,0.773,1.209,1.779,1.32,2.893H606.379z M607.604,54.264
		c-0.094-1.078-0.486-2.072-1.098-2.893h0.557c0.559,0.844,0.914,1.828,0.998,2.893H607.604z M608.822,54.264
		c-0.073-1.047-0.38-2.025-0.869-2.893h0.521c0.453,0.877,0.736,1.857,0.807,2.893H608.822z M610.041,54.264
		c-0.061-1.025-0.312-2.004-0.721-2.893h0.498c0.386,0.898,0.623,1.871,0.682,2.893H610.041z M610.553,51.004h-8.008v-28.02h8.008
		V51.004z"/>
	<circle fill="#4F97D2" cx="619.377" cy="15.072" r="4.477"/>
	<path fill="#4F97D2" d="M634.91,23.809v0.914c0,0.918-0.684,1.68-1.572,1.795v3.304c0.336,0.092,0.582,0.4,0.582,0.768
		c0,0.363-0.246,0.672-0.582,0.764c-0.066,0.02-0.14,0.031-0.213,0.031h-1.778c-0.05,0-0.099-0.004-0.147-0.012
		c-0.16-0.031-0.304-0.107-0.418-0.221c-0.145-0.143-0.233-0.342-0.233-0.562c0-0.389,0.279-0.711,0.651-0.783v-3.271h-6.434V57.83
		h-4.279V43.146h-2.111V57.83h-4.387V25.394c0-1.876,1.521-3.398,3.396-3.398h13.814v-3.047h2.139v3.064
		C634.227,22.129,634.91,22.889,634.91,23.809z"/>
	<path fill="#4F97D2" d="M637.605,15.166v2.873h-2.135c-0.059-0.42-0.419-0.742-0.855-0.742c-0.476,0-0.865,0.387-0.865,0.865
		c0,0-0.041,0.375-0.428,0.375h-2.423c0,0,0.089-1.322-1.09-1.322c0,0-0.461,0-0.886,0c-1.826,0-2.17,2.453-2.17,2.453h-1.07
		c0,0,0-2.307,2.055-3.719c1.4-0.959,2.897-1.162,3.25-1.182c0.053-0.006,0.076-0.006,0.076-0.006h2.111
		c0.43,0,0.671,0.115,0.671,0.404c0,0.096,0.018,0.188,0.052,0.271c0.062,0.166,0.18,0.307,0.332,0.396
		c0.112,0.064,0.244,0.102,0.385,0.102c0.291,0,0.545-0.164,0.677-0.402c0.015-0.031,0.031-0.062,0.041-0.096
		c0.033-0.084,0.051-0.176,0.051-0.271H637.605L637.605,15.166z"/>
	<ellipse fill="#4F97D2" cx="606.557" cy="48.366" rx="1.16" ry="0.687"/>
	<ellipse fill="#4F97D2" cx="606.557" cy="26.173" rx="1.16" ry="0.686"/>
</g>
<g>
	<rect x="569.717" y="10.596" fill="#8DCEE0" width="38" height="2"/>
	<rect x="580.216" y="41.609" fill="#8DCEE0" width="17" height="2"/>
	<rect x="593.418" y="16.277" fill="#8DCEE0" width="17" height="2"/>
	<rect x="586.482" y="48.053" fill="#8DCEE0" width="10.734" height="2"/>
</g>
<g>
	<circle fill="#4F97D2" cx="439.619" cy="14.857" r="4.574"/>
	<path fill="#4F97D2" d="M453.637,26.569c1.025,0,1.854-0.828,1.854-1.851v-0.934c0-1.022-0.828-1.854-1.854-1.854h-1.422v-0.975
		c1.645-0.534,1.814-3.279,1.814-3.279v-1.139h-4.924v1.139c0,0,0.275,2.75,1.943,3.281v0.973h-13.465
		c-1.918,0-3.474,1.556-3.474,3.473v33.146h4.484V43.545h2.158v15.006h4.372V26.57h5.924v21.299
		c-0.365,0.209-0.881,0.441-1.477,0.545c-1.193,0.205-1.451,0-1.451,0s0,2.59,0,5.545s3.511,4.592,3.511,4.592
		s3.511-1.637,3.511-4.592s0-5.545,0-5.545s-0.258,0.205-1.449,0c-0.599-0.104-1.114-0.336-1.479-0.545v-21.3H453.637z
		 M450.104,17.678h2.991c0,0-0.165,2.314-1.528,2.314C450.202,19.992,450.104,17.678,450.104,17.678z"/>
	<path fill="#4F97D2" d="M425.718,27.385l3.128,5.807l-1.461,0.018l2.807,4.314h-1.807l1.866,3.27h-9.147l1.93-3.279l-1.704,0.01
		l3.011-4.352l-1.549-0.041L425.718,27.385z M425.889,25.303h-0.344l-3.02,3.947h1.025l-2.961,4.457l1.676,0.031l-3.482,4.512
		l2.078,0.031l-2.078,3.605h6.145v3.271h-3.041l1.553,2.059h4.998l1.521-2.059h-3.396v-3.271h6.088l-2.02-3.543l2.02-0.094
		l-3.16-4.543h1.354l-2.993-4.456h1.055L425.889,25.303L425.889,25.303z"/>
</g>
<g>
	<rect x="388.283" y="10.283" fill="#8DCEE0" width="38" height="2"/>
	<rect x="398.782" y="41.297" fill="#8DCEE0" width="17.001" height="2"/>
	<rect x="411.983" y="15.965" fill="#8DCEE0" width="17.001" height="2"/>
	<rect x="405.048" y="47.74" fill="#8DCEE0" width="10.735" height="2"/>
</g>
<g>
	<polyline fill="#4F97D2" points="984.977,50.234 984.543,50.234 984.543,13.729 985.411,13.729 985.411,50.234 984.977,50.234 	"/>
	<polygon fill="#4F97D2" points="990.422,58.212 991.406,58.212 989.713,55.041 985.046,55.041 984.908,55.041 980.238,55.041 
		978.546,58.212 979.53,58.212 979.451,58.469 980.494,58.469 980.457,58.646 984.612,58.646 985.34,58.646 989.497,58.646 
		989.456,58.469 990.501,58.469 	"/>
	<path fill="#4F97D2" d="M984.977,54.805h-5.081c0,0,0.315-0.965,1.478-1.182c1.16-0.217,2.501-0.649,2.855-1.536
		c0.354-0.887,0.275-1.359,0.275-1.359h0.473h0.472c0,0-0.078,0.473,0.276,1.359c0.354,0.887,1.693,1.319,2.856,1.536
		c1.161,0.217,1.478,1.182,1.478,1.182H984.977z"/>
	<circle fill="#4F97D2" cx="971.104" cy="15.044" r="4.574"/>
	<path fill="#4F97D2" d="M982.533,22.119h-13.465c-1.917,0-3.473,1.555-3.473,3.472v33.146h4.483V43.732h2.157v15.004h4.373V26.758
		h5.924l0,0c0.07,0,0.884-0.001,1.166-0.001l0,0h1.424c1.022,0,1.853-0.829,1.853-1.852v-0.933c0-1.023-0.83-1.854-1.853-1.854
		h-1.424l0,0C983.311,22.119,982.922,22.119,982.533,22.119L982.533,22.119"/>
	<g id="basket_4_">
		<path fill="#4F97D2" d="M957.097,26.103c-3.595,0-6.517,2.738-6.517,6.111c0,0.615,0.109,1.213,0.299,1.785l-0.014,0.004
			l1.451,8.201c0.019,1.361,2.369,1.98,4.555,1.98c2.146,0,4.45-0.597,4.553-1.906l1.889-8.25l0,0
			c0.003-0.019,0.007-0.035,0.011-0.052l0.009-0.025c0.179-0.55,0.27-1.135,0.27-1.738
			C963.603,28.841,960.684,26.103,957.097,26.103z M957.097,27.229c2.947,0,5.341,2.209,5.374,4.932
			c-1.166-0.867-3.307-1.325-5.365-1.325c-2.074,0-4.236,0.465-5.395,1.349C951.728,29.45,954.138,27.229,957.097,27.229z
			 M951.982,33.667c0-0.695,1.995-1.704,5.123-1.704c3.127,0,5.125,1.009,5.125,1.704c0,0.692-1.998,1.701-5.125,1.701
			C953.978,35.368,951.982,34.358,951.982,33.667z M960.348,41.919l-0.047,0.264c-0.066,0.24-1.217,0.875-3.43,0.875
			c-2.077,0-3.221-0.562-3.405-0.821l-1.165-6.575l0.107-0.088c1.218,0.606,2.986,0.922,4.697,0.922
			c1.702,0,3.459-0.312,4.678-0.912l0.012,0.009L960.348,41.919z"/>
	</g>
</g>
<g>
	<rect x="919.658" y="9.471" fill="#8DCEE0" width="38" height="2"/>
	<rect x="930.158" y="40.484" fill="#8DCEE0" width="17" height="2"/>
	<rect x="943.359" y="15.151" fill="#8DCEE0" width="17" height="2"/>
	<rect x="936.424" y="46.928" fill="#8DCEE0" width="10.734" height="2"/>
</g>
<g>
	<path fill="#4F97D2" d="M131.87,22.212h-1.46v-3.371c1.467-0.447,2.531-1.809,2.531-3.418c0-1.26-0.652-2.367-1.637-3.004V15.2
		c0,0.494-0.4,0.893-0.895,0.893h-2.086c-0.492,0-0.893-0.398-0.893-0.893v-2.781c-0.984,0.637-1.638,1.744-1.638,3.004
		c0,1.609,1.067,2.971,2.53,3.418v3.371h-12.483c-1.915,0-3.468,1.555-3.468,3.469v33.093h4.477V43.793h2.154v14.981h4.367V26.843
		h4.955v4.027c-1.13,0.422-1.934,1.512-1.934,2.789c0,1.647,1.333,2.979,2.979,2.979c1.642,0,2.975-1.332,2.975-2.979
		c0-1.277-0.804-2.367-1.936-2.789v-4.027h1.46c1.021,0,1.849-0.826,1.849-1.85v-0.93C133.719,23.042,132.892,22.212,131.87,22.212z
		 M130.857,33.66c0,0.822-0.666,1.489-1.486,1.489c-0.825,0-1.492-0.667-1.492-1.489c0-0.824,0.667-1.488,1.492-1.488
		C130.191,32.171,130.857,32.837,130.857,33.66z"/>
	<circle fill="#4F97D2" cx="117.871" cy="15.148" r="4.567"/>
	<path fill="#4F97D2" d="M106.094,40.236c-2.464,0-4.469-2.004-4.469-4.467c0-0.521,0.089-1.032,0.264-1.518l0.02-0.045l0.107-0.268
		l4.08-9.967l0.678,1.663l3.525,8.617c0.178,0.486,0.266,0.997,0.266,1.518C110.564,38.232,108.561,40.236,106.094,40.236z
		 M102.905,34.64c-0.128,0.364-0.193,0.741-0.193,1.129c0,1.863,1.517,3.383,3.382,3.383s3.384-1.52,3.384-3.383
		c0-0.389-0.063-0.768-0.194-1.129l-0.117-0.291l-3.072-7.506L102.905,34.64z"/>
</g>
<g>
	<rect x="66.229" y="9.005" fill="#8DCEE0" width="38" height="2"/>
	<rect x="76.728" y="40.02" fill="#8DCEE0" width="17.001" height="2"/>
	<rect x="89.929" y="14.687" fill="#8DCEE0" width="17.001" height="2"/>
	<rect x="82.994" y="46.462" fill="#8DCEE0" width="10.735" height="2"/>
</g>
<g>
	<path fill="#4F97D2" d="M239.506,14.884c0,2.573-2.037,4.658-4.551,4.658s-4.552-2.085-4.552-4.658
		c0-0.284,0.026-0.565,0.075-0.835h8.953C239.481,14.318,239.506,14.6,239.506,14.884z"/>
	<path fill="#4F97D2" d="M248.105,21.212v0.875h0.799c1.019,0,1.844,0.763,1.844,1.701v0.857c0,0.938-0.825,1.7-1.844,1.7h-0.799
		v1.037c0.034,0.032,0.078,0.078,0.117,0.127c0.031,0.045,0.059,0.088,0.077,0.133c0.075,0.167,0.074,0.342,0,0.523
		c-0.033,0.076-0.028,0.123-0.015,0.193l0.003,0.024c0.109,0.698,0.148,1.173,0.158,1.449c0.027,0.666-0.053,1.26-0.085,1.4
		c-0.013,0.061-0.065,0.262-0.164,0.411c-0.025,0.04-0.052,0.07-0.082,0.097c-0.096,0.09-0.224,0.146-0.364,0.158
		c-0.02,0.005-0.171,0.002-0.193,0c-0.138-0.02-0.264-0.08-0.357-0.173c-0.03-0.028-0.056-0.061-0.079-0.099
		c-0.093-0.15-0.137-0.354-0.15-0.414c-0.028-0.144-0.091-0.739-0.045-1.403c0.021-0.275,0.071-0.749,0.203-1.443l0.003-0.024
		c0.015-0.068,0.021-0.116-0.009-0.195c-0.071-0.183-0.063-0.358,0.016-0.522c0.021-0.045,0.048-0.087,0.081-0.127
		c0.03-0.039,0.073-0.081,0.109-0.115v-1.037h-6.895V59.37h-4.351V44.093h-2.147V59.37h-4.459V25.624
		c0-1.952,1.546-3.536,3.454-3.536h14.399v-1.264l0.304-0.237l6.477-5.075v-1.069h-1.778v1.063h-8.588v-2.917h8.588v1.062h2.55v2.25
		L248.105,21.212z"/>
	<path fill="#4F97D2" d="M226.758,29.504v8.752c0,1.652-2.833,2.518-5.633,2.518c-2.799,0-5.633-0.865-5.633-2.518v-1.119
		c0.268,0.054,0.548,0.084,0.832,0.084c0.084,0,0.17-0.004,0.251-0.008v1.043c0,0.477,1.606,1.411,4.55,1.411
		c2.943,0,4.548-0.935,4.548-1.411v-8.097C226.096,29.973,226.464,29.753,226.758,29.504z"/>
	<path fill="#4F97D2" d="M215.492,29.501c0.027,0.024,0.059,0.049,0.087,0.075c0.192,0.152,0.412,0.292,0.654,0.418
		c0.109,0.059,0.223,0.113,0.341,0.165v5.806c-0.023,0.004-0.042,0.008-0.063,0.008c-0.059,0.006-0.115,0.006-0.174,0.006
		c-0.207,0-0.394-0.032-0.563-0.101l-0.015-0.008c-0.055-0.021-0.106-0.042-0.156-0.072c-0.039-0.022-0.079-0.044-0.111-0.068
		v-6.007V29.501z"/>
	<path fill="#4F97D2" d="M216.324,36.79c-0.264,0-0.518-0.032-0.756-0.093c-0.243-0.062-0.478-0.154-0.703-0.279
		c-0.727-0.405-1.193-1.011-1.385-1.804c-0.464-1.918,0.852-4.444,1.371-5.336c0.094,0.127,0.205,0.247,0.328,0.364
		c-0.546,0.962-1.653,3.19-1.251,4.861c0.162,0.664,0.54,1.153,1.158,1.495c0.09,0.053,0.192,0.099,0.298,0.141
		c0.291,0.115,0.609,0.176,0.95,0.176l0,0c0.086,0,0.177-0.005,0.267-0.013c2.629-0.213,5.731-3.646,7.017-5.215
		c0.247-0.045,0.486-0.093,0.716-0.149c-1.375,1.739-4.782,5.646-7.779,5.842C216.478,36.786,216.403,36.79,216.324,36.79z"/>
	<path fill="#4F97D2" d="M241.993,12.525v0.644l-11.412,0.012v-2.887c0-0.35,0.277-0.634,0.619-0.634h7.687
		c0.343,0,0.62,0.284,0.62,0.634v2.23H241.993L241.993,12.525z"/>
	<path fill="#4F97D2" d="M221.125,25.849c-3.105,0-5.623,0.976-5.623,2.174c0,0.418,0.304,0.805,0.837,1.137
		c0.991,0.622,2.762,1.03,4.786,1.03c2.024,0,3.792-0.408,4.784-1.03c0.533-0.332,0.838-0.719,0.838-1.137
		C226.748,26.824,224.23,25.849,221.125,25.849z M225.173,28.664c-0.782-0.372-2.144-0.738-4.047-0.738
		c-1.904,0-3.265,0.366-4.052,0.738c-0.528-0.25-0.799-0.499-0.799-0.642c0-0.359,1.666-1.377,4.851-1.377
		c3.18,0,4.849,1.018,4.849,1.377C225.974,28.165,225.706,28.414,225.173,28.664z"/>
</g>
<g>
	<rect x="183.999" y="8.63" fill="#8DCEE0" width="38.27" height="2.061"/>
	<rect x="194.573" y="40.593" fill="#8DCEE0" width="17.122" height="2.061"/>
	<rect x="207.868" y="14.484" fill="#8DCEE0" width="17.122" height="2.061"/>
	<rect x="200.884" y="47.233" fill="#8DCEE0" width="10.811" height="2.061"/>
</g>
<g>
	<path fill="#4F97D2" d="M822.264,56.886v1.062h-2.726c-3.537,0-4.546-3.157-4.585-4.826V26.46h-4.636v31.26h-4.273V43.055h-2.11
		V57.72h-4.381V25.32c0-1.875,1.518-3.395,3.393-3.395h12.008v-3.572c-0.204-0.18-0.37-0.397-0.441-0.496l-0.612-0.854
		c-0.292-0.402-0.519-1.104-0.519-1.6v-0.22c0-0.533,0.368-0.982,0.862-1.104v-2.796h0.761v2.761h1.062v-2.761h0.761v2.828
		c0.443,0.153,0.76,0.576,0.76,1.072v0.22c0,0.493-0.218,1.194-0.495,1.603l-0.571,0.835c-0.077,0.112-0.27,0.377-0.503,0.569v3.516
		h2.622c0.999,0,1.81,0.812,1.81,1.812v0.911c0,1.001-0.811,1.812-1.81,1.812h-2.622v26.65c0.002,0.14,0.144,3.774,3.52,3.774
		H822.264L822.264,56.886z"/>
	<path fill="#4F97D2" d="M804.934,10.54c2.47,0,4.472,2.001,4.472,4.47c0,2.47-2.002,4.471-4.472,4.471
		c-2.467,0-4.469-2.001-4.469-4.471C800.465,12.541,802.467,10.54,804.934,10.54z"/>
	<path fill="#4F97D2" d="M791.59,49.35l-1.037-0.225l0.854-7.105h-2.469l1.385-5.545h-3.091l2.826-10.526h6.33l-2.079,5.689h2.08
		l-2.232,6.085h1.119L791.59,49.35z M790.301,40.956h2.307l-0.322,2.678l1.536-4.849h-1.19l2.232-6.084h-2.077l2.077-5.688h-3.988
		l-2.257,8.396h3.067L790.301,40.956z"/>
</g>
<g>
	<rect x="754.151" y="9.033" fill="#8DCEE0" width="38" height="2"/>
	<rect x="764.65" y="40.048" fill="#8DCEE0" width="17.001" height="2"/>
	<rect x="777.852" y="14.715" fill="#8DCEE0" width="17.001" height="2"/>
	<rect x="770.917" y="46.491" fill="#8DCEE0" width="10.734" height="2"/>
</g>
<g>
	<path fill="#4F97D2" d="M1127.735,19.537c2.47,0,4.472-2.002,4.472-4.471s-2.002-4.471-4.472-4.471
		c-2.467,0-4.469,2.002-4.469,4.471S1125.269,19.537,1127.735,19.537z"/>
	<path fill="#4F97D2" d="M1141.351,15.49l-0.66-0.66c-0.723-0.723-1.896-0.725-2.621,0l-7.465,7.465h-6.311l-7.466-7.465
		c-0.726-0.725-1.898-0.723-2.622,0l-0.66,0.66c-0.723,0.723-0.723,1.895,0.003,2.619l8.806,8.805v30.861h4.273h0.107V43.111h2.003
		v14.664h0.107h4.273c0,0,0-22.74,0-31.437l8.229-8.229C1142.073,17.385,1142.073,16.213,1141.351,15.49z"/>
</g>
<g>
	<rect x="1077.332" y="23.725" fill="#8DCEE0" width="38" height="2"/>
	<rect x="1101.34" y="45.195" fill="#8DCEE0" width="17.001" height="2"/>
	<rect x="1101.033" y="29.405" fill="#8DCEE0" width="17" height="2"/>
	<rect x="1107.605" y="51.637" fill="#8DCEE0" width="10.735" height="2"/>
</g>
<circle fill="#8DCEE0" cx="489.776" cy="318.734" r="23.75"/>
<circle fill="#4F97D2" cx="559.526" cy="323.484" r="23"/>
<circle fill="#3C80BC" cx="517.692" cy="379.234" r="27.25"/>
<circle fill="#CBEBF4" cx="423.632" cy="245.091" r="49.894"/>
</svg>
